<?xml version="1.0" encoding="iso-8859-1"?>
<!-- Generator: Adobe Illustrator 18.1.1, SVG Export Plug-In . SVG Version: 6.00 Build 0)  -->
<svg version="1.1" id="_x31_0" xmlns="http://www.w3.org/2000/svg" xmlns:xlink="http://www.w3.org/1999/xlink" x="0px" y="0px"
	 viewBox="0 0 512 512" style="enable-background:new 0 0 512 512;" xml:space="preserve">
<g>
	<path style="fill:#EE752A;" d="M260.519,484.567c-29.902-33.225-70.91-95.825-116.906-141.82
		C97.617,296.751,70.786,231.59,74.619,170.262S114.865,47.607,172.36,24.609c57.495-22.998,132.238-36.413,193.566,15.332
		c61.328,51.745,91.992,149.486,63.244,216.563c-28.747,67.077-65.161,95.824-78.576,114.989
		c-13.415,19.165-47.912,70.91-59.411,90.075C279.684,480.734,277.767,503.732,260.519,484.567z"/>
	<path style="fill:#FBEABD;" d="M206.857,250.755c-22.998-13.415-40.246-80.493-3.833-109.24
		c36.413-28.747,61.328-40.246,99.657-13.415c38.33,26.831,34.497,97.741,11.499,118.822
		c-22.998,21.081-36.413,28.747-65.161,22.998C220.272,264.171,206.857,250.755,206.857,250.755z"/>
	<g>
		<path style="fill:#231815;" d="M204.746,252.979c-5.166-2.421-10.305-5.781-14.875-10.041c-4.58-4.244-8.555-9.394-11.518-15.008
			c-2.987-5.605-4.939-11.645-5.94-17.506c-1.014-5.868-1.088-11.543-0.644-16.628c0.114-1.272,0.316-3.131,0.715-5.478
			c0.202-1.172,0.449-2.467,0.771-3.866l0.528-2.177l0.307-1.144l0.041-0.14l0.101-0.52c1.213-6.477,3.552-14.64,8.08-23.086
			c4.492-8.433,11.205-17.063,19.956-24.203c8.711-7.172,19.375-12.82,30.75-16.122c11.368-3.339,23.398-4.325,34.667-3.153
			c5.632,0.577,11.102,1.661,16.195,3.146c5.091,1.457,9.912,3.241,14.331,5.313c8.858,4.112,16.045,9.366,21.169,14.359
			c5.169,4.975,8.381,9.529,10.292,12.2c7.623,10.736,12.19,25.254,11.639,43.371c-0.296,9.057-1.87,19.019-5.145,29.836
			c-0.812,2.707-1.75,5.458-2.785,8.268c-0.513,1.409-1.07,2.82-1.643,4.252l-0.889,2.163l-1.009,2.328
			c-0.373,0.787-0.859,1.644-1.288,2.435c-0.436,0.739-0.848,1.503-1.319,2.238c-0.91,1.493-1.913,2.963-2.978,4.426
			c-2.149,2.908-4.604,5.751-7.404,8.409c-4.027,3.845-8.967,7.366-14.493,10.129c-5.523,2.771-11.596,4.819-17.797,6.055
			c-12.427,2.53-25.191,1.846-36.035-0.408c-10.891-2.242-19.914-5.983-26.08-9.081c-6.176-3.112-9.596-5.502-9.614-5.465
			c0.035-0.75,5.208,1.582,13.769,4.2c8.531,2.619,20.623,5.283,33.664,5.218c6.502-0.004,13.206-0.7,19.62-2.162
			c6.41-1.475,12.524-3.724,17.832-6.623c5.323-2.873,9.835-6.343,13.359-9.854c3.537-3.507,6.144-6.996,8.003-9.867
			c0.481-0.706,0.925-1.474,1.387-2.229c0.419-0.743,0.87-1.477,1.233-2.356c0.771-1.658,1.589-3.577,2.364-5.469
			c1.563-3.831,3.017-7.966,4.28-12.294c2.527-8.65,4.129-18.135,4.17-27.299c0.084-9.161-1.456-17.934-4.046-25.049
			c-2.555-7.144-6.017-12.591-8.641-16.06c-2.566-3.457-9.074-11.02-20.056-16.891c-10.868-5.871-25.829-10.254-40.647-9.987
			c-7.408,0.065-14.737,1.211-21.418,3.116c-6.689,1.909-12.712,4.602-17.735,7.507c-10.093,5.849-15.985,12.409-17.911,14.731
			c-3.856,4.696-10.189,13.299-13.883,25.298c-0.919,2.985-1.684,6.156-2.236,9.468l-0.189,1.25l-0.14,0.88l-0.223,0.968
			c-0.193,0.822-0.367,1.652-0.524,2.489c-0.318,1.675-0.569,3.376-0.749,5.095c-0.734,6.874-0.223,14.055,1.746,20.756
			c1.96,6.705,4.744,12.055,7.559,16.478c2.834,4.421,5.71,7.936,8.297,10.895c5.227,5.876,9.15,9.678,11.677,12.517
			c2.601,2.774,0.539,3.073-2.33,2.519C208.21,254.584,204.742,252.984,204.746,252.979z"/>
		<path style="fill:#231815;" d="M75.65,124.506c-7.455,22.015-11.778,45.896-10.902,69.253c0.268,8.197,1.245,18.322,3.681,29.555
			c2.412,11.229,6.339,23.524,11.877,35.941c5.51,12.431,12.6,24.958,20.666,37.039c8.061,12.094,17.065,23.765,26.247,34.842
			c18.411,22.136,37.317,42.085,51.874,58.741c14.66,16.585,24.937,29.864,29.09,36.412c5.691,8.848,12.019,18.594,17.832,28.284
			c5.845,9.686,11.112,19.321,15.514,27.88c4.436,8.548,8.051,16.058,11.624,21.239c3.567,5.147,7.245,8.014,11.577,6.421
			c3.504-1.29,5.735-6.627,6.04-14.596c0.326-7.937-1.467-18.388-5.33-28.965c-3.814-10.603-9.614-21.238-15.949-30.349
			c-6.328-9.138-13.124-16.822-18.824-22.272c-3.717-3.595-14.378-15.595-29.668-31.055c-15.203-15.562-35.051-34.568-54.481-55.372
			c-9.697-10.417-19.234-21.344-27.849-32.601c-8.624-11.246-16.294-22.84-22.434-34.307c-6.161-11.455-10.761-22.769-13.861-33.096
			c-3.118-10.327-4.776-19.635-5.656-27.068c-1.904-15.688-1.046-31.266,1.422-45.106c2.467-13.839,6.393-26.048,10.256-35.518
			c1.451-3.444,4.649-11.705,10.93-22.992c6.296-11.226,15.877-25.519,30.495-39.389c14.529-13.855,34.297-27.031,58.38-35.533
			c23.993-8.577,52.116-12.422,81.03-9.728c28.869,2.641,58.545,11.799,84.59,27.735c13.015,7.945,25.086,17.557,35.605,28.586
			c10.524,11.02,19.474,23.454,26.44,36.752c6.985,13.292,11.984,27.419,15.076,41.684c3.107,14.276,4.308,28.646,4.099,42.653
			c-0.18,14.057-1.505,27.646-4.172,40.384c-2.646,12.743-6.663,24.597-11.684,35.302c-9.893,21.112-23.234,37.606-35.388,52.272
			c-12.27,14.623-23.44,27.644-32.442,39.978c-4.528,6.146-8.561,12.074-12.137,17.761l-2.601,4.22
			c-0.926,1.561-1.391,2.326-2.22,3.434c-1.574,2.116-3.46,4.248-5.313,6.299c-7.582,8.21-14.557,15.543-20.103,22.239
			c-11.213,13.402-17.739,23.906-22.386,32.21c-2.317,4.17-4.153,7.829-5.738,11.216c-1.516,3.27-2.83,5.969-4.262,8.724
			c-2.845,5.515-5.467,10.539-7.823,15.629c-2.365,5.084-4.132,10.24-4.95,14.671c-1.649,8.911-0.494,15.085,1.684,17.23
			c2.253,2.188,5.583,0.205,9.983-6.388c2.253-3.322,4.707-7.45,8.156-12.978c3.444-5.498,8.407-13.783,12.302-23.901
			c1.997-5.112,3.243-8.862,5.053-12.933c1.735-4.007,3.663-7.978,5.98-12.182c4.662-8.409,10.799-17.733,21.001-29.766
			c2.553-3.021,5.364-6.208,8.465-9.714c3.099-3.581,6.492-7.171,10.174-12.379c0.458-0.665,0.921-1.377,1.385-2.154l1.078-1.874
			l2.066-3.522c1.422-2.379,2.937-4.817,4.548-7.316c3.23-4.995,6.861-10.232,10.949-15.737
			c8.136-11.047,18.251-22.997,29.758-37.135c5.725-7.09,11.761-14.778,17.69-23.427c5.922-8.641,11.718-18.28,16.687-29.11
			c5.319-11.542,9.571-24.351,12.324-37.944c2.777-13.593,4.11-27.922,4.243-42.567c0.183-14.697-1.115-29.994-4.439-45.191
			c-3.309-15.2-8.649-30.325-16.122-44.571c-7.456-14.25-17.024-27.592-28.257-39.387c-11.228-11.809-24.087-22.076-37.922-30.548
			c-27.692-16.987-59.119-26.725-89.828-29.529c-30.746-2.861-60.837,1.258-86.744,10.665
			c-25.989,9.322-47.547,23.925-63.353,39.527c-15.92,15.607-26.279,31.878-33.065,44.983
			C80.84,109.245,77.41,119.331,75.65,124.506z"/>
	</g>
</g>
</svg>
