<?xml version="1.0" encoding="iso-8859-1"?>
<!-- Generator: Adobe Illustrator 21.1.0, SVG Export Plug-In . SVG Version: 6.00 Build 0)  -->
<svg version="1.1" id="_x31_0" xmlns="http://www.w3.org/2000/svg" xmlns:xlink="http://www.w3.org/1999/xlink" x="0px" y="0px"
	 viewBox="0 0 512 512" style="enable-background:new 0 0 512 512;" xml:space="preserve">
<g>
	<path style="fill:#231815;" d="M209.856,233.224c14.988-13.42,34.716-22.608,54.853-24.272c20.878-1.726,40.95,7.783,59.984,15.092
		c4.708,1.808,9.418,3.608,14.16,5.327c2.167,0.785,4.345,1.537,6.519,2.299c0.591,0.207,5.424,2.427,5.843,2.188
		c-0.432,0.247-2.276-0.45-2.809-0.554c-1.271-0.249-2.549-0.466-3.822-0.707c-3.474-0.655-6.926-1.422-10.347-2.317
		c-7-1.83-13.86-4.14-20.669-6.575c-14.721-5.263-30.155-11.7-46.102-10.636c-12.502,0.835-25.796,4.878-36.885,10.685
		c-13.137,6.879-23.961,17.227-32.701,29.102c-0.428,0.581-5.022,7.722-5.657,7.371c-0.878-0.485,3.071-7.148,3.477-7.861
		C199.629,245.46,204.328,238.946,209.856,233.224z"/>
	<path style="fill:#231815;" d="M373.321,234.48c6.426,0.529,46.847-0.849,38.474,13.738c-2.527,4.402-7.253,8.169-11.304,11.179
		c-7.03,5.223-14.572,9.781-22.066,14.298c-3.139,1.892-6.297,3.751-9.453,5.616c-1.078,0.637-2.154,1.278-3.227,1.923
		c-1.315,0.79-3.077,2.402-4.587,2.701c0.317-0.063,1.525-1.567,1.873-1.897c0.899-0.855,1.8-1.707,2.722-2.536
		c3.013-2.71,6.202-5.22,9.478-7.605c9.812-7.143,21.048-12.799,29.477-21.672c0.981-1.033,4.441-4.104,3.771-5.828
		c-0.609-1.567-4.362-2.434-5.82-2.861c-3.204-0.938-6.554-1.384-9.871-1.692c-10.429-0.969-20.973-0.738-31.326-2.482
		c-2.944-0.496-6.7-0.919-9.309-2.47c-2.821-1.677,2.795-0.699,3.69-0.614C361.643,234.827,367.507,234.752,373.321,234.48z"/>
	<path style="fill:#231815;" d="M368.302,282.306c-1.266,0.313-9.189,2.894-7.868,5.35c0.891,1.657,6.936-0.244,8.266-0.527
		c7.726-1.644,15.475-3.236,23.232-4.726c7.594-1.458,15.248-2.39,22.904-3.437c4.125-0.564,19.547-1.67,18.328-8.694
		c-0.581-3.345-5.63-5.793-8.309-7.056c-3.747-1.766-7.786-2.961-11.789-3.992c-3.749-0.966-7.726-2.1-11.621-2.151
		c-0.834-0.011-3.167-0.158-3.549,0.794c-0.418,1.039,1.19,1.755,1.945,2.138c6.313,3.203,14.177,3.419,20.935,5.219
		c2.954,0.787,7.231,1.984,9.149,4.596c2.185,2.974-4.027,4.529-6.106,5.077C405.697,279.67,386.498,277.891,368.302,282.306z"/>
	<path style="fill:#231815;" d="M426.233,282.065c-8.457,6.781-17.582,12.753-26.77,18.486c-4.597,2.868-9.239,5.664-13.96,8.323
		c-0.641,0.361-9.501,5.07-9.57,4.821c-0.097-0.35,3.033-3.197,3.342-3.512c2.593-2.65,5.534-4.918,8.625-6.955
		c6.902-4.549,13.82-8.963,20.437-13.924c2.676-2.006,5.736-3.444,8.508-5.322c3.578-2.424,6.972-5.172,10.11-8.144
		c1.362-1.289,2.584-2.667,3.785-4.103c0.293-0.35,0.836-1.552,1.426-1.393c0.611,0.164,0.017,1.937-0.062,2.232
		C431.148,276.122,428.469,279.242,426.233,282.065z"/>
	<path style="fill:#231815;" d="M379.329,315.468c-0.095,8.444-5.055,14.379-13.499,15.571c-3.915,0.553-7.954,0.185-11.747-0.901
		c-1.392-0.399-6.459-1.735-6.94-3.436c0.035,0.125,11.791,0.591,12.673,0.631c4.895,0.219,8.941-0.887,12.562-4.198
		c3.761-3.439,2.575-8.235,2.491-12.818c-0.047-2.578,0.663-3.426,1.971-0.844C377.816,311.401,378.71,313.393,379.329,315.468z"/>
	<path style="fill:#231815;" d="M189.661,292.65c-10.4,4.692-18.783,13.329-27.835,20.074c-4.429,3.3-9.078,6.459-14.222,8.538
		c-1.878,0.759-3.831,1.403-5.836,1.725c-0.447,0.072-5.253,0.252-5.107-0.135c0.084-0.223,3.791-1.227,4.193-1.417
		c1.524-0.721,2.993-1.555,4.443-2.413c3.696-2.187,7.359-4.471,10.832-7c3.464-2.523,6.764-5.268,9.997-8.078
		c2.593-2.254,5.022-4.794,7.914-6.667c6.162-3.99,12.633-9.069,19.963-10.52c1.711-0.339,3.678-0.526,5.395-0.09
		c1.508,0.383,2.515,0.889,0.862,1.504c-1.842,0.685-3.897,0.614-5.786,1.499C192.76,290.473,191.184,291.535,189.661,292.65z"/>
	<path style="fill:#231815;" d="M111.029,311.907c-12.255-10.086-21.621-23.97-35.237-32.333
		c-14.585-8.957-32.421-1.048-48.208-1.437c-4.512-0.111-9.086-0.863-13.188-2.82c-2.166-1.033-4.184-2.372-5.945-4.004
		c-0.205-0.19-2.667-3.299-2.748-3.294c0.418-0.022,1.37,1.196,1.736,1.493c0.892,0.725,1.866,1.339,2.874,1.888
		c2.683,1.463,5.626,2.439,8.634,2.95c6.21,1.054,12.604,0.31,18.792-0.528c13.458-1.823,27.675-5.247,40.185,1.953
		c9.229,5.311,15.673,13.163,22.866,20.793c8.392,8.902,17.706,16.551,28.513,22.34c0.575,0.308,6.297,2.917,6.083,3.496
		c-0.376,1.018-5.996-1.269-6.853-1.592C122.322,318.473,116.635,315.437,111.029,311.907z"/>
	<path style="fill:#231815;" d="M27.035,284.205c-5.273,0.348-10.441,1.678-15.754,1.508c-2.379-0.076-4.774-0.445-7.02-1.254
		c-0.242-0.087-4.6-2.129-4.24-2.52c0.116-0.125,2.036,0.356,2.296,0.391c1.768,0.236,3.535,0.497,5.305,0.721
		c3.786,0.48,7.112-0.061,10.829-0.592c1.462-0.209,2.952-0.16,4.424-0.299c1.688-0.159,8.361-1.832,9.759,0.089
		C32.714,282.359,27.736,283.947,27.035,284.205z"/>
	<path style="fill:#231815;" d="M27.035,292.761c-5.273,0.349-10.441,1.679-15.754,1.509c-2.379-0.076-4.774-0.445-7.02-1.254
		c-0.242-0.087-4.6-2.129-4.24-2.52c0.116-0.125,2.036,0.356,2.296,0.391c1.768,0.236,3.535,0.497,5.305,0.721
		c3.786,0.48,7.112-0.061,10.829-0.592c1.462-0.209,2.952-0.161,4.424-0.3c1.688-0.159,8.361-1.832,9.759,0.09
		C32.714,290.916,27.736,292.504,27.035,292.761z"/>
	<path style="fill:#231815;" d="M203.428,350.008c-25.707,10.504-56.635,18.217-83.681,8.204
		c-14.831-5.491-27.638-15.433-37.942-27.303c-9.254-10.66-18.569-27.19-33.776-29.779c-1.53-0.26-3.058-0.069-4.567-0.252
		c-1.599-0.193-3.172-0.968-4.771-1.297c-4.444-0.912-8.979-0.708-13.481-0.552c-4.283,0.148-8.608,0.235-12.824-0.663
		c-1.461-0.311-2.913-0.723-4.292-1.303c-0.431-0.182-2.123-1.322-2.424-1.267c1.241-0.225,3.734,1.23,5.048,1.469
		c2.16,0.392,4.371,0.501,6.563,0.44c4.67-0.131,9.277-0.999,13.936-1.275c1.979-0.117,3.953-0.112,5.928,0.048
		c2.226,0.18,4.339,1.027,6.516,1.248c3.355,0.34,6.319,0.11,9.627,1.25c9.422,3.247,16.516,11.264,22.715,18.702
		c6.233,7.479,12.192,15.013,19.656,21.343c7.407,6.282,15.779,11.479,24.919,14.828c8.272,3.03,16.978,4.015,25.733,4.275
		c16.539,0.492,33.038-3.421,48.449-9.18c9.378-3.505,18.499-7.704,27.319-12.437c1.262-0.677,20.974-12.614,21.218-12.268
		c0.95,1.348-16.432,12.643-18.081,13.697C218.229,342.4,210.942,346.497,203.428,350.008z"/>
	<path style="fill:#231815;" d="M224.576,189.518c-7.748-7.486-18.196-12.442-29.118-11.999
		c-11.061,0.449-20.038,6.658-27.174,14.67c-7.043,7.908-12.864,16.991-20.966,23.917c-8.207,7.016-18.767,10.889-29.603,9.421
		c-5.248-0.711-10.292-2.667-14.678-5.634c-1.743-1.179-3.409-2.52-4.896-4.008c-0.851-0.852-1.675-1.731-2.424-2.672
		c-0.171-0.215-1.37-2.206-1.52-2.224c0.896,0.108,2.494,2.447,3.251,3.07c1.538,1.266,3.183,2.41,4.906,3.41
		c2.789,1.618,5.824,2.904,8.932,3.763c7.406,2.048,15.3,1.574,22.434-1.232c14.284-5.618,22.135-20.001,31.746-31.049
		c5.056-5.812,11.02-11.088,18.344-13.788c7.013-2.585,15.011-2.569,22.203-0.735c15.651,3.991,28.569,16.318,34.339,31.269
		c1.002,2.596,2.929,6.984,2.467,9.861c-0.211,1.315-0.341,0.96-0.903-0.25c-0.862-1.854-1.39-3.867-2.215-5.743
		C236.293,201.812,231.13,194.887,224.576,189.518z"/>
	<path style="fill:#231815;" d="M101.086,229.514c-3.488-2.667-7.542-4.492-10.85-7.415c-1.542-1.363-2.963-2.933-3.78-4.846
		c-0.115-0.269-1.269-4.031-0.489-4.011c0.307,0.008,2.465,3.079,2.883,3.548c1.394,1.563,2.79,2.999,4.531,4.185
		c1.575,1.073,3.363,1.731,4.861,2.891c2.219,1.718,5.04,3.092,6.831,5.264c0.995,1.206,1.204,1.98-0.576,1.495
		C103.35,230.312,102.25,229.812,101.086,229.514z"/>
	<path style="fill:#231815;" d="M89.87,226.72c3.885,2.79,8.166,5.094,12.541,7.013c0.734,0.322,10.993,4.081,10.813,4.528
		c-0.241,0.598-4.786,0.192-5.398,0.098c-2.565-0.394-5.069-1.461-7.469-2.413c-2.409-0.955-4.908-1.767-6.992-3.323
		c-1.522-1.136-3.107-2.152-4.695-3.194c-1.137-0.746-3.811-2.114-4.277-3.557c-0.293-0.906-0.321-0.721,0.538-0.794
		C86.24,224.968,88.535,226.32,89.87,226.72z"/>
	<path style="fill:#231815;" d="M98.876,240.61c-1.932-1.027-3.897-2.026-5.934-2.831c-0.674-0.266-2.921-1.389-3.683-0.899
		c-1.895,1.218,3.851,4.995,4.868,5.664c8.053,5.294,17.812,8.525,27.444,8.912c9.858,0.396,18.431-2.62,26.194-8.579
		c7.95-6.103,16.535-11.992,26.043-15.371c8.911-3.167,18.446-2.99,23.911,5.743c1.053,1.683,1.935,3.464,2.916,5.188
		c0.572,1.005,1.771,3.553,2.613,1.672c0.602-1.347-0.399-4-0.837-5.29c-0.66-1.942-1.63-3.804-2.84-5.461
		c-10.739-14.706-31.656-2.794-43.13,4.795c-8.614,5.697-15.679,13.256-26.467,14.371
		C119.109,249.646,108.334,245.573,98.876,240.61z"/>
	<path style="fill:#231815;" d="M191.798,262.461c-3.631,4.311-6.553,10.169-6.731,15.886c-0.078,2.509,0.496,4.945,1.95,7.017
		c0.315,0.449,3.61,4.159,3.744,4.095c-1.26,0.608-4.571-0.923-5.587-1.618c-2.174-1.488-3.313-3.9-3.818-6.428
		c-0.833-4.168-0.302-10.184,1.911-13.899c2.22-3.726,4.849-8.062,8.262-10.779c0.683-0.544,3.007-2.334,3.111-0.657
		c0.048,0.78-1.404,2.707-1.739,3.479C192.489,260.508,192.13,261.48,191.798,262.461z"/>
	<path style="fill:#231815;" d="M282.442,343.917c-11.064-0.728-22.097-2.129-32.928-4.53c-4.646-1.03-9.275-2.245-13.765-3.83
		c-0.163-0.058-4.86-1.983-4.694-2.151c0.279-0.283,3.54,0.047,3.961,0.047c3.335-0.003,6.635,0.384,9.906,1.024
		c4.526,0.886,9.025,1.819,13.598,2.441c3.169,0.431,6.41,0.449,9.562,0.926c2.329,0.353,4.591,1.004,6.936,1.306
		c4.058,0.522,8.153,0.57,12.233,0.798c0.633,0.035,7.001,0.288,6.194,1.48c-0.631,0.934-4.569,1.221-5.664,1.456
		C286.009,343.264,284.227,343.59,282.442,343.917z"/>
	<path style="fill:#231815;" d="M343.667,329.11c-3.143,0.648-5.835,2.961-8.663,4.357c-1.285,0.634-7.082,3.13-8.281,0.936
		c-0.495-0.906,5.337-3.857,5.811-4.123c2.025-1.138,3.568-2.938,5.722-3.686c2.002-0.695,4.861-2.332,7-1.63
		C348.14,325.91,344.61,327.833,343.667,329.11z"/>
	<path style="fill:#231815;" d="M330.684,335.737c-0.316,7.565-2.207,15.853,1.097,23.023c2.141,4.646,6.275,8.53,10.673,11.104
		c6.86,4.015,14.913,4.225,22.622,3.558c3.635-0.315,7.25-0.816,10.871-1.25c0.76-0.091,7.167-0.417,7.18-0.456
		c-0.099,0.29-2.394,0.759-2.687,0.862c-1.956,0.688-3.889,1.431-5.864,2.064c-4.206,1.349-8.541,2.339-12.949,2.705
		c-9.695,0.805-18.961-1.352-26.552-7.602c-3.003-2.473-5.951-5.506-7.578-9.089c-1.523-3.354-1.789-7.251-1.771-10.885
		c0.022-4.452,0.614-8.873,0.756-13.32c0.138-4.325,0.077-8.895,1.984-12.892c0.734-1.537,1.753-3.056,3.165-4.05
		c2.37-1.669,1.163,0.319,0.422,1.589C329.418,325.621,330.137,330.774,330.684,335.737z"/>
	<path style="fill:#231815;" d="M300.549,351.441c-0.72,16.348,5.665,35.353,22.044,41.9c7.445,2.976,15.715,3.314,23.636,3.058
		c4.261-0.138,8.514-0.48,12.759-0.868c1.738-0.159,3.475-0.328,5.215-0.456c0.429-0.032,3.049-0.512,3.382-0.066
		c-0.33-0.442-9.045,2.658-9.745,2.837c-5.191,1.331-10.505,2.14-15.863,2.294c-11.144,0.319-22.936-1.798-31.541-9.368
		c-7.263-6.389-10.869-14.889-12.895-24.15c-1.021-4.667-1.395-9.324-1.212-14.094c0.199-5.175-1.933-9.624-4.149-14.173
		c-0.355-0.728-3.013-5.36-2.368-5.992c0.781-0.765,2.905,2.988,3.486,3.797C296.465,340.575,300.368,345.76,300.549,351.441z"/>
	<path style="fill:#231815;" d="M385.242,183.679c8.809-1.758,18.545-1.092,26.7,2.678c4.295,1.986,8.655,3.783,13.398,4.315
		c1.176,0.132,8.42-0.426,8.846,0.298c-0.058-0.098-4.97,1.464-5.319,1.534c-2.637,0.524-5.327,0.525-7.966,0.003
		c-5.451-1.078-10.151-4.441-15.541-5.489c-4.555-0.885-9.792-1.421-14.436-1.16c-2.747,0.154-5.598,0.57-8.17,1.589
		c-1.207,0.478-2.36,1.09-3.265,2.041c-0.235,0.247-1.413,2.179-1.646,2.049c-1.423-0.817,1.626-4.423,2.158-4.903
		C381.492,185.289,383.385,184.395,385.242,183.679z"/>
	<path style="fill:#231815;" d="M430.729,198.773c-3.108,0.79-6.265,0.523-9.331-0.32c-1.182-0.325-6.073-1.484-6.468-2.982
		c-0.155-0.588,5.001,0.118,5.095,0.143c2.237,0.586,4.361,0.778,6.625,0.967c0.837,0.07,1.56,0.164,2.409,0.026
		c0.97-0.158,2.292-0.985,3.262-0.84C434.516,196.095,431.671,198.042,430.729,198.773z"/>
	<path style="fill:#231815;" d="M428.958,202.354c-3.676-0.055-7.368-0.841-10.893-1.834c-1.654-0.466-3.292-1-4.894-1.624
		c-0.612-0.238-3.025-0.934-3.293-1.632c0.022,0.058,1.773-0.262,1.894-0.272c1.651-0.131,3.138,0.241,4.73,0.645
		c2.575,0.652,5.244,0.862,7.788,1.503c2.36,0.594,4.536,0.53,6.951,0.73c0.967,0.08,2.071-0.019,1.34,0.994
		C432.06,201.586,429.786,202.06,428.958,202.354z"/>
	<path style="fill:#231815;" d="M426.631,208.448c-3.839,0.169-7.697-0.498-11.301-1.813c-1.507-0.55-3.042-1.214-4.379-2.115
		c-0.025-0.017-1.474-1.142-1.303-1.195c1.578-0.489,4.005,0.314,5.456,0.777c2.476,0.789,4.92,1.011,7.42,1.517
		c2.13,0.431,4.092,0.002,6.213,0.194C431.848,206.094,427.733,207.91,426.631,208.448z"/>
	<path style="fill:#231815;" d="M409.141,214.063c-2.673-1.722-9.264-2.823-10.037,1.687c-0.334,1.948,1.005,4.031,1.99,5.577
		c0.21,0.33,2.176,3.099,1.959,3.239c-0.226,0.146-2.506-1.513-2.691-1.652c-1.089-0.823-1.946-1.805-2.597-3.01
		c-1.797-3.326-1.228-7.093,2.157-9.072c2.336-1.366,4.74-1.101,7.243-0.334c1.646,0.504,3.257,1.252,4.593,2.35
		c0.219,0.18,3.14,3.064,2.204,3.51C413.44,216.605,410.115,214.295,409.141,214.063z"/>
	<path style="fill:#231815;" d="M392.41,221.03c-2.004-2.676-4.055-5.548-5.34-8.652c-0.325-0.786-1.146-2.465-0.349-2.704
		c1.142-0.341,2.698,1.798,3.158,2.445c1.417,1.996,2.671,3.883,3.918,5.919c0.392,0.64,2.57,2.692,1.891,3.634
		C395.16,222.406,393.037,221.265,392.41,221.03z"/>
	<path style="fill:#231815;" d="M371.822,193.033c1.314,0.1,5.299,0.472,5.962-1.235c0.713-1.836-2.579-2.891-3.789-3.212
		c-4.98-1.324-10.546-0.367-15.445,0.853c-10.063,2.507-20.551,5.316-29.961,9.705c-4.976,2.321-10.036,5.347-13.319,9.864
		c-1.297,1.784-2.49,3.928-2.479,6.193c0.004,0.813,0.131,2.462,1.069,2.862c1.202,0.512,1.907-1.117,2.361-1.95
		c2.244-4.114,4.552-7.989,8.156-11.108c3.155-2.73,6.951-4.468,10.805-5.972C346.867,194.475,359.239,191.951,371.822,193.033z"/>
	<path style="fill:#231815;" d="M378.744,210.972c-7.709,0.173-15.771,2.249-23.009,4.801c-3.527,1.244-7,2.74-10.158,4.758
		c-0.695,0.444-7.201,6.02-6.946,6.214c-0.225-0.171,0.757-3.103,0.845-3.351c0.432-1.207,1.065-2.334,1.838-3.354
		c2.135-2.817,5.258-4.575,8.384-6.09c5.374-2.604,11.781-5.393,17.768-5.949c5.635-0.523,11.643-2.128,17.253-0.76
		c0.949,0.231,5.072,1.652,2.853,2.478c-1.144,0.426-3.313-0.024-4.626,0.198C381.524,210.158,380.112,210.516,378.744,210.972z"/>
	<path style="fill:#231815;" d="M386.187,362.237c6.421-10.381,22.742-13.406,32.21-5.656c4.541,3.717,6.544,9.627,4.92,15.306
		c-0.839,2.933-2.479,5.615-4.5,7.88c-0.49,0.549-4.339,3.39-4.34,3.494c0.003-0.611,1.393-2.054,1.721-2.662
		c0.866-1.605,1.646-3.278,2.308-4.978c1.439-3.691,2.453-7.965,0.717-11.734c-3.375-7.33-11.954-7.766-18.809-6.461
		c-7.02,1.337-12.859,6.971-12.338,14.399c0.06,0.856,0.931,3.426,0.243,3.933c-0.805,0.593-2.391-3.422-2.534-3.851
		C384.705,368.665,385.003,365.402,386.187,362.237z"/>
	<path style="fill:#231815;" d="M427.509,341.898c-1.66,1.196-3.275,2.504-4.693,3.984c-0.501,0.523-2.114,1.93-2.021,2.752
		c0.231,2.056,6.705-2.57,7.739-3.274c5.809-3.95,11.393-8.237,16.87-12.633c13.238-10.624,26.837-20.899,39.653-32.029
		c6.718-5.835,13.373-11.925,19.194-18.673c2.602-3.016,5.457-6.062,7.149-9.719c2.115-4.571-1.94-0.981-3.28,0.485
		c-5.688,6.222-10.774,12.971-16.571,19.1c-4.906,5.187-10.33,9.833-15.83,14.372C460.242,319.034,443.738,330.144,427.509,341.898z
		"/>
	<path style="fill:#231815;" d="M445.687,344.153c14.767-11.297,29.404-23.001,42.358-36.38c6.219-6.423,12.086-13.31,16.7-20.993
		c1.659-2.764,3.167-5.635,4.372-8.628c0.435-1.079,0.811-2.174,1.165-3.282c0.484-1.516,0.646-3.617,1.454-5.001
		c-0.574,0.984-0.323,3.569-0.523,4.825c-0.391,2.451-1.005,4.841-1.838,7.18c-1.355,3.805-3.244,7.418-5.441,10.802
		c-5.729,8.827-13.106,16.566-20.612,23.89c-10.976,10.711-22.982,19.884-35.066,29.29c-0.879,0.684-17.816,14.236-18.516,13.361
		C429.202,358.545,443.989,345.706,445.687,344.153z"/>
	<path style="fill:#231815;" d="M263.573,196.169c-6.287-15.306-12.035-30.54-16.684-46.427c-1.072-3.664-2.385-7.34-4.281-10.667
		c-0.771-1.354-1.696-2.957-2.987-3.893c-1.674-1.215-2.379-0.429-2.02,1.319c0.749,3.644,2.712,7.379,4.166,10.777
		c1.214,2.837,2.59,5.59,3.745,8.454c3.158,7.837,5.965,15.798,9.22,23.6c2.976,7.132,6.038,14.225,8.817,21.437
		c3.166,8.214,5.961,16.501,8.741,24.849c0.473,1.419,5.924,17.075,8.295,14.916c1.106-1.007-3.005-8.175-3.444-9.155
		c-1.804-4.022-3.338-8.149-4.799-12.305C269.628,211.353,266.667,203.746,263.573,196.169z"/>
	<path style="fill:#231815;" d="M323.525,142.531c0.233-1.127,1.91-8.541-0.068-9.157c-1.338-0.417-2.261,2.658-2.558,3.464
		c-2.547,6.913-3.388,14.646-4.198,21.933c-0.858,7.717-1.59,15.434-2.844,23.101c-1.587,9.7-3.738,19.309-5.754,28.926
		c-1.733,8.266-3.554,16.574-4.539,24.97c-0.143,1.216-1.209,7.704,0.576,8.434c1.586,0.648,2.378-4.297,2.565-5.176
		c1.599-7.51,1.925-15.237,2.917-22.835c0.664-5.086,1.677-10.103,2.686-15.128C316.217,181.582,319.482,161.99,323.525,142.531z"/>
	<path style="fill:#231815;" d="M223.326,135.647c1.208,3.54,2.739,6.965,4.127,10.436c0.66,1.651,1.317,3.307,1.859,5
		c0.251,0.784,1.38,3.529,0.872,4.297c0.034-0.051-1.578-1.434-1.721-1.585c-1.35-1.421-2.064-3.186-2.858-4.946
		c-1.024-2.27-2.581-4.538-3.322-6.907c-0.777-2.484-1.944-5.098-2.427-7.636c-0.254-1.337-0.412-2.38,0.986-1.522
		C221.759,133.348,222.582,134.828,223.326,135.647z"/>
	<path style="fill:#231815;" d="M232.41,153.719c3.832,1.298,8.406,1.586,11.556,4.387c0.368,0.327,2.078,1.896,1.71,2.629
		c-0.253,0.505-3.092,0.299-3.556,0.204c-1.243-0.255-2.385-0.949-3.635-1.238c-0.872-0.201-1.894-0.081-2.725-0.307
		c-0.682-0.185-1.043-0.451-1.707-0.784c-1.319-0.663-4.298-0.67-4.946-2.284C228.41,154.589,231.161,154.249,232.41,153.719z"/>
	<path style="fill:#231815;" d="M249.794,156.26c2.066-3.153,3.457-6.771,4.686-10.316c0.587-1.694,1.109-3.407,1.626-5.124
		c0.239-0.794,0.692-3.702,1.401-4.158c0.141-0.09,0.952,3.33,0.964,3.819c0.052,2.116-0.702,4.256-1.273,6.265
		c-0.58,2.042-0.978,4.294-2.025,6.151c-1.326,2.351-2.632,5.405-4.624,7.232c-1.102,1.01-1.825,1.403-1.541-0.431
		C249.187,158.55,249.59,157.413,249.794,156.26z"/>
	<path style="fill:#231815;" d="M254.848,123.614c0.614,3.472,1.755,6.851,2.834,10.199c0.51,1.583,1.024,3.165,1.511,4.755
		c0.2,0.652,1.165,2.774,0.925,3.44c-0.077,0.215-2.454-1.778-2.615-1.972c-1.166-1.401-1.7-3.271-2.35-4.943
		c-0.734-1.887-1.829-3.813-2.224-5.794c-0.47-2.356-1.243-5.026-1.261-7.417C251.638,117.942,253.926,122.305,254.848,123.614z"/>
	<path style="fill:#231815;" d="M224.303,126.033c3.498,1.294,7.089,2.348,10.499,3.874c0.99,0.443,6.54,2.696,6.364,4.295
		c-0.07,0.64-11.773-2.871-13.085-3.389c-2.028-0.8-4.236-1.654-6.213-2.582c-0.551-0.258-2.259-0.952-1.752-1.778
		C220.404,125.986,223.775,126.079,224.303,126.033z"/>
	<path style="fill:#231815;" d="M239.505,130.04c1.912-2.892,3.211-6.149,4.967-9.132c0.773-1.312,4.239-7.264,6.426-6.629
		c0.411,0.119-3.419,7.002-3.679,7.488c-1.006,1.877-1.533,3.983-2.701,5.741c-1.085,1.634-2.869,6.376-4.957,6.817
		C237.846,134.686,239.369,131.081,239.505,130.04z"/>
	<path style="fill:#231815;" d="M311.133,117.629c-0.426,2.381-5.274,29.512-6.569,29.009c-0.152-0.059-0.265-2.618-0.281-2.846
		c-0.168-2.434,0.255-4.779,0.696-7.164c0.755-4.09,0.795-8.477,1.876-12.471c1-3.691,1.169-7.555,2.19-11.228
		c0.617-2.218,1.171-1.984,1.526,0.286C310.8,114.678,310.964,116.156,311.133,117.629z"/>
	<path style="fill:#231815;" d="M309.918,150.235c2.073,1.935,3.969,3.874,5.344,6.386c0.223,0.409,2.49,5.172,1.473,5.437
		c-0.709,0.185-2.456-1.818-2.772-2.254c-1.233-1.702-2.55-3.264-3.808-4.891c-0.935-1.209-2.41-2.288-3.191-3.556
		C305.562,149.077,308.551,149.999,309.918,150.235z"/>
	<path style="fill:#231815;" d="M343.017,129.038c-1.255,5.044-2.413,10.122-4.052,15.06c-0.192,0.577-3.931,9.662-4.435,9.231
		c-0.135-0.115,0.049-2.002,0.056-2.215c0.061-1.761,0.415-3.399,0.908-5.089c1.041-3.57,1.584-7.301,2.63-10.839
		c0.892-3.02,1.734-6.057,2.599-9.098c0.155-0.546,0.706-3.083,1.591-2.653C343.008,123.772,342.946,128.27,343.017,129.038z"/>
	<path style="fill:#231815;" d="M330.452,154.464c-2.695,1.635-5.087,3.723-7.745,5.417c-1.133,0.722-2.315,1.406-3.575,1.883
		c-0.289,0.109-2.358,0.401-2.357,0.4c0.439-0.491,0.613-1.264,1.018-1.806c0.979-1.31,2.482-2.093,3.758-3.072
		c1.33-1.021,2.445-2.319,3.849-3.188c1.551-0.961,3.558-2.616,5.309-3.051C333.484,150.358,331.073,153.319,330.452,154.464z"/>
	<path style="fill:#231815;" d="M310.093,139.903c-1.282-0.935-2.312,0.775-1.832,1.877c0.522,1.196,2.256,1.503,3.254,2.084
		c1.57,0.915,2.411,2.173,3.188,3.783c0.607,1.257,1.068,3.978,2.196,4.739c1.118,0.754,2.136-0.095,1.924-1.386
		c-0.21-1.279-1.725-2.178-2.423-3.197C314.468,144.984,312.869,142.055,310.093,139.903z"/>
	<path style="fill:#231815;" d="M333.473,143.542c1.459-0.995,0.313-2.58-1.123-2.382c-1.531,0.21-2.69,2.073-3.627,3.121
		c-1.4,1.567-3.07,2.669-4.884,3.706c-1.408,0.805-4.507,1.714-5.414,3.092c-0.906,1.376,0.199,2.091,1.57,1.769
		c1.428-0.336,2.375-2.087,3.496-2.946C326.621,147.5,330.232,145.771,333.473,143.542z"/>
	<path style="fill:#231815;" d="M313.249,131.085c2.073,1.935,3.969,3.874,5.343,6.386c0.223,0.408,2.49,5.172,1.474,5.436
		c-0.71,0.185-2.455-1.817-2.772-2.254c-1.233-1.701-2.55-3.264-3.808-4.891c-0.935-1.209-2.41-2.288-3.191-3.556
		C308.893,129.927,311.881,130.849,313.249,131.085z"/>
	<path style="fill:#231815;" d="M335.138,133.967c1.459-0.995,0.312-2.579-1.124-2.382c-1.53,0.21-2.691,2.074-3.627,3.121
		c-1.4,1.567-3.07,2.669-4.884,3.706c-1.408,0.805-4.507,1.714-5.414,3.092c-0.906,1.376,0.198,2.091,1.57,1.769
		c1.429-0.336,2.375-2.087,3.496-2.947C328.286,137.925,331.897,136.197,335.138,133.967z"/>
	<path style="fill:#231815;" d="M316.498,119.682c1.174,2.521,2.47,4.985,3.776,7.439c0.652,1.225,3.3,4.548,3.074,5.971
		c-0.021,0.13-1.921-0.411-2.031-0.462c-1.185-0.547-1.882-1.602-2.577-2.65c-1.191-1.797-2.685-3.675-3.433-5.672
		c-0.623-1.663-1.878-3.427-2.169-5.165C312.668,116.329,315.465,118.936,316.498,119.682z"/>
	<path style="fill:#231815;" d="M324.299,130.111c2.715-1.33,5.095-3.331,7.448-5.199c1-0.794,4.237-4.191,5.722-3.938
		c0.126,0.022-0.62,2.427-0.737,2.654c-0.76,1.468-2.181,2.498-3.376,3.595c-1.311,1.204-2.474,2.62-4.021,3.478
		c-1.388,0.771-4.997,3.561-6.611,2.887C321.18,132.943,323.687,131.023,324.299,130.111z"/>
	<path style="fill:#231815;" d="M257.356,257.276c2.247,3.343,4.529,6.698,6.493,10.219c1.163,2.085,2.17,6.823,5.012,7.149
		c1.665,0.191,2.662-1.157,2.484-2.68c-0.177-1.523-1.446-2.59-2.484-3.543c-1.726-1.585-3.231-3.328-4.704-5.161
		c-4.273-5.318-7.405-11.312-11.419-16.804c-0.75-1.026-2.026-2.77-3.549-1.882c-1.757,1.026,0.17,2.696,1.007,3.527
		C253.006,250.894,255.142,254.005,257.356,257.276z"/>
	<path style="fill:#231815;" d="M241.561,264.283c1.433-3.507,2.873-7.039,4.623-10.402c1.135-2.181,3.587-4.36,4.061-6.779
		c0.284-1.449-0.397-3.204-2.132-3.183c-1.578,0.02-2.685,1.914-3.11,3.231c-0.936,2.899-1.491,5.956-2.457,8.878
		c-1.094,3.312-2.33,6.507-3.848,9.645c-0.794,1.642-1.559,3.298-2.37,4.931c-0.708,1.428-1.851,2.909-2.377,4.395
		c-0.412,1.164-0.44,3.713,1.551,3.066c1.337-0.435,1.768-2.893,2.161-4.03C238.808,270.722,240.205,267.515,241.561,264.283z"/>
	<path style="fill:#231815;" d="M430.836,367.099c0.916-6.356-0.431-13.932-7.368-16.045c-6.246-1.902-12.409-4.133-18.568-6.309
		c-2.628-0.928-5.808-1.621-8.188,0.314c-2.269,1.845-2.496,5.244-1.519,7.831c0.396,1.049,1.31,2.959,2.745,2.34
		c0.915-0.395,0.96-1.92,1.071-2.743c0.456-3.368,0.558-4.308,4.225-4.035c6.224,0.462,12.344,3.006,18.357,4.49
		c3.252,0.802,5.214,1.928,6.625,5.163c1.289,2.955,1.125,6.227,0.556,9.337c-0.625,3.416-1.742,6.727-2.652,10.073
		c-0.951,3.493-1.779,7.221-4.173,10.069c-2.139,2.546-4.459,3.018-7.616,2.263c-1.104-0.264-6.999-2.118-4.257,1.011
		c4.38,4.997,11.618,2.049,14.6-2.708c2.028-3.235,2.768-6.941,3.701-10.581C429.268,374.092,430.28,370.652,430.836,367.099z"/>
	<path style="fill:#231815;" d="M394.293,374.211c3.053-1.486,6.944-1.231,8.468,2.21c1.075,2.427,0.6,5.712-1.106,7.723
		c-3.53,4.163-9.04,7.315-13.512,10.342c-4.113,2.783-9.351,6.781-14.632,6.042c-2.968-0.416-3.849-2.763-3.294-5.491
		c0.769-3.782,3.145-6.71,6.033-9.124C381.661,381.391,387.995,377.36,394.293,374.211z"/>
	<path style="fill:#231815;" d="M440.121,341.987c13.37-10.165,25.757-21.775,38.246-32.987
		c5.974-5.363,11.891-10.795,17.621-16.419c1.957-1.92,3.893-3.862,5.786-5.846c0.876-0.918,1.734-1.853,2.599-2.782
		c0.162-0.174,1.918-1.682,1.931-1.971c-0.026,0.596-1.212,1.684-1.557,2.165c-1.222,1.7-2.47,3.377-3.791,5.003
		c-2.161,2.659-4.463,5.202-6.849,7.66c-6.507,6.707-13.539,12.92-20.464,19.188c-10.122,9.162-20.275,18.2-30.999,26.664
		c-3.439,2.715-6.954,5.342-10.603,7.77c-0.583,0.388-6.133,4.334-6.656,3.808C425.617,354.471,438.815,343.153,440.121,341.987z"/>
	<path style="fill:#231815;" d="M357.268,317.407c-2.132-2.432-5.242-5.793-4.811-9.299c0.434-3.531,4.26-5.837,7.584-4.546
		c3.178,1.235,5.179,5.341,6.135,8.365c0.419,1.325,0.733,2.75,0.665,4.149c-0.009,0.187-0.602,3.354-1.174,2.774
		c-0.049-0.05-0.258-1.709-0.388-1.969c-0.308-0.617-0.757-1.18-1.126-1.764c-1.068-1.686-1.946-3.5-3.065-5.15
		c-0.601-0.886-1.898-3.088-3.292-2.514c-0.929,0.382-0.867,1.586-0.683,2.401c0.675,2.992,3.936,5.431,6.012,7.438
		c1.503,1.453,1.264,2.075-0.949,1.848C360.485,318.968,358.761,318.18,357.268,317.407z"/>
	<path style="fill:#231815;" d="M241.489,285.775c-0.638-1.429-2.319-7.614-4.251-7.452c-0.985,0.082-2.513,2.017-1.994,2.992
		c0.345,0.648,0.845,0.414,1.334,0.735c0.792,0.52,1.412,1.121,1.985,1.88c1.195,1.583,2.046,7.118,3.846,7.617
		c0.529,0.146,1.221-0.189,1.532-0.622c0.629-0.878,0.191-0.806-0.261-1.56C242.921,288.099,242.111,287.197,241.489,285.775z"/>
	<path style="fill:#231815;" d="M237.612,312.737c0.773-3.882,1.868-7.684,3.229-11.401c0.62-1.695,1.313-3.308,2.183-4.883
		c0.752-1.36,2.326-3.848,1.228-5.434c-1.58-2.281-3.546,0.507-4.06,2.067c-0.437,1.328-0.421,2.775-0.686,4.144
		c-0.805,4.159-1.773,8.371-2.946,12.443c-1.964-1.954-3.512-4.446-4.96-6.781c-0.704-1.135-1.341-2.964-2.687-3.482
		c-1.132-0.435-1.956-0.089-1.822,1.141c0.167,1.531,2.25,3.133,3.153,4.249c1.013,1.251,1.964,2.552,2.991,3.792
		C234.405,310.003,235.971,312.016,237.612,312.737z"/>
	<path style="fill:#231815;" d="M218.666,301.425c2.189-0.642,4.457-1.439,6.745-1.623c1.572-0.126,3.368,0.825,4.534-0.574
		c1.679-2.014-0.301-3.705-2.402-3.136c-1.867,0.505-3.807,1.77-5.63,2.482c-2.22,0.868-4.406,1.439-6.749,1.863
		c-1.446,0.262-4.264-0.155-5.254,1.07c-1.91,2.363,1.997,1.842,3.185,1.498C214.95,302.469,216.815,301.969,218.666,301.425z"/>
	<path style="fill:#231815;" d="M213.319,293.461c2.1-4.439,3.807-8.792,4.804-13.596c1.574,0.513,2.684,0.913,4.318,0.631
		c0.579-0.1,8.318-2.535,8.296-1.975c-0.019,0.47-4.114,2.741-4.689,3.033c-1.839,0.934-4.013,1.65-6.098,1.352
		c-0.658,2.322-0.863,4.454-2.016,6.59c-0.88,1.629-1.626,3.317-2.383,5.005c-0.431,0.961-1.374,4.207-2.606,4.618
		C212.532,299.255,213.215,294.126,213.319,293.461z"/>
	<path style="fill:#231815;" d="M231.563,197.122c-3.909-0.591-7.607,2.466-9.828,5.352c-1.644,2.136-4.306,6.633-1.843,9.106
		c3.275,3.288,10.865-0.514,13.296-3.158C235.417,205.997,236.416,197.43,231.563,197.122z"/>
	<path style="fill:#231815;" d="M218.242,183.799c-4.975-0.883-17.489,6.649-12.718,12.61c3.741,4.674,13.295-3.326,17.535-3.936
		C221.718,189.274,221.062,186.089,218.242,183.799z"/>
	<path style="fill:#231815;" d="M206.029,342.556c0.826-6.994-5.038-12.949-7.785-18.862c-2.047-4.406-1.755-11.675,4.951-10.55
		c4.756,0.798,8.117,5.8,10.194,9.766c1.944,3.713,3.534,8.201,2.986,12.455C215.679,340.761,211.026,342.763,206.029,342.556z"/>
	<path style="fill:#231815;" d="M194.928,350.882c-0.792-3.938-1.102-8.048-2.639-11.797c-1.1-2.683-2.942-5.014-4.843-7.181
		c-1.68-1.915-3.811-4.261-6.385-4.92c-2.111-0.54-5.994,1.325-5.325,3.837c0.447,1.681,2.245,3.474,3.108,5.045
		c1.005,1.831,1.813,3.656,2.053,5.745c0.385,3.354-0.586,7.491,1.747,10.323C185.806,355.773,191.468,352.497,194.928,350.882z"/>
	<path style="fill:#231815;" d="M265.424,271.504c-1.28,2.73-4.056,5.078-4.482,8.173c-0.515,3.747,2.549,3.539,5.081,4.172
		c7.93,1.984,1.395,11.55,0.856,16.136c-0.163,1.389-0.289,6.281,2.123,5.856c2.003-0.353,3.058-4.246,3.385-5.817
		c0.699-3.361,0.043-6.829,1.527-10.04c1.402-3.032,4.755-4.708,5.801-7.937C282.501,273.442,271.862,270.181,265.424,271.504z"/>
	<g>
		<path style="fill:#231815;" d="M268.704,323.739C268.728,323.7,268.696,323.704,268.704,323.739L268.704,323.739z"/>
		<path style="fill:#231815;" d="M281.135,333.402c-0.853-1.28-2.885-2.529-4.07-3.429c-2.129-1.618-4.331-3.139-6.437-4.788
			c-0.41-0.321-0.978-1.002-1.455-1.168c-0.378-0.132-0.459-0.232-0.469-0.278c-0.034,0.056-0.183,0.198-0.736,0.457
			c-0.609,0.286-1.137,0.968-1.76,1.311c-3.781,2.083-10.188,1.016-12.627,5.19c-0.985,1.686-0.852,4.192,0.799,5.446
			c0.641,0.486,1.111,0.655,1.473,0.626c0.045,0.228,0.074,0.454,0.05,0.663c-0.105,0.937,1.449,1.794,2.084,2.116
			c2.57,1.304,5.994,1.388,8.82,1.472c4.529,0.134,12.591,0.023,14.469-5.257C282.009,334.211,281.856,334.485,281.135,333.402z"/>
	</g>
	<path style="fill:#231815;" d="M327.039,329.233c-4.013-0.229-10.012,0.246-11.463,4.824c-1.497,4.72,2.897,9.071,6.566,11.285
		c1.105,0.667,4.414,2.44,5.449,1.173c0.888-1.086,0.353-4.505,0.309-5.786C327.768,336.892,327.115,333.067,327.039,329.233z"/>
	<path style="fill:#231815;" d="M325.375,355.323c-2.241-1.293-6.235-0.28-7.733,1.777c-1.947,2.676,0.736,5.212,3.023,6.383
		c1.432,0.733,3.016,1.205,4.591,1.512c0.89,0.173,3.243,0.812,4.088,0.31C331.126,364.245,326.609,356.621,325.375,355.323z"/>
	<path style="fill:#231815;" d="M328.705,226.541c-0.511-3.165,0.425-7.043,2.209-9.685c1.746-2.585,5.544-3.883,7.736-0.938
		c1.876,2.52,0.635,6.512-0.339,9.135c-0.42,1.131-1.179,3.657-2.152,3.758c-0.772,0.081-2.686-1.115-3.475-1.345
		C331.377,227.085,330.04,226.801,328.705,226.541z"/>
	<path style="fill:#231815;" d="M227.309,142.849c-1.259-0.437-2.005,0.933-1.521,1.956c0.614,1.298,2.93,1.238,4.082,1.362
		c2.068,0.223,3.772,1.001,5.616,1.951c1.203,0.62,3.382,2.392,4.763,2.256c1.311-0.13,1.546-1.257,0.707-2.169
		c-0.911-0.99-2.812-0.658-4.015-1.027C233.584,146.148,230.586,144.069,227.309,142.849z"/>
	<path style="fill:#231815;" d="M245.854,148.825c-0.535,1.261,0.743,2.054,1.813,1.598c1.392-0.594,1.425-2.712,1.68-3.935
		c0.346-1.663,1.055-2.996,1.896-4.459c0.555-0.966,1.048-1.998,1.724-2.889c0.437-0.576,1.242-1.056,1.589-1.64
		c0.806-1.356-0.152-2.616-1.766-1.71c-1.312,0.736-1.392,2.505-1.888,3.766C249.607,142.844,247.247,145.6,245.854,148.825z"/>
	<path style="fill:#231815;" d="M228.654,137.194c-2.688-1.306-4.168,0.495-1.562,2.243c2.876,1.929,6.852,2.32,10.232,2.228
		c6.759-0.184,10.63-8.022,13.788-13.1c0.406-0.653,1.907-2.944,0.271-3.198c-0.723-0.112-1.541,0.867-1.935,1.319
		c-2.016,2.305-2.608,5.511-4.267,8.054c-1.516,2.324-3.654,5.343-6.664,5.479C235.188,140.369,231.556,138.622,228.654,137.194z"/>
	<path style="fill:#231815;" d="M232.712,293.984c-0.278-0.358-2.486-3.105-1.59-3.683c0.793-0.512,2.007,2.084,2.218,2.386
		c1.332,1.899,2.832,3.682,4.18,5.573c0.349,0.489,2.656,4.667,2.926,4.716c-1.581-0.288-3.821-3.293-4.709-4.461
		C234.64,297.071,233.658,295.53,232.712,293.984z"/>
	<path style="fill:#231815;" d="M235.234,290.028c-0.281-0.437-1.904-2.675-1.304-3.336c0.828-0.913,2.457,2.77,2.701,3.158
		c1.075,1.707,2.119,3.437,3.217,5.128c0.301,0.463,2.046,3.455,2.293,3.449c-1.396,0.036-3.344-2.334-4.09-3.353
		C236.914,293.518,236.092,291.745,235.234,290.028z"/>
	<path style="fill:#231815;" d="M220.917,290.329c-0.604,0.354-2.876,1.74-3.289,0.559c-0.238-0.68,2.835-1.767,3.165-1.943
		c0.761-0.406,8.68-4.104,9.037-2.602C230.008,287.085,221.81,289.978,220.917,290.329z"/>
	<path style="fill:#231815;" d="M221.257,294.216c-0.506,0.247-3.245,1.82-3.876,1.163c-0.852-0.888,3.737-2.511,4.331-2.784
		c0.869-0.399,10.647-3.612,10.655-3.746c-0.06,0.988-4.242,2.814-5.018,3.154C225.374,292.869,223.29,293.504,221.257,294.216z"/>
	<path style="fill:#231815;" d="M231.066,285.244c0.119-0.485,1.846-5.084,2.902-3.947c0.305,0.328-1.857,5.048-2.037,5.858
		c-0.508,2.277-1.16,4.27-2.329,6.301c-0.621,1.08-1.327,2.117-1.88,3.235c-0.224,0.453-0.586,2.162-0.975,2.409
		c0.041-0.037,0.106-2.79,0.262-3.342c0.354-1.254,0.922-2.395,1.497-3.558C229.621,289.945,230.266,287.62,231.066,285.244z"/>
</g>
</svg>
