<?xml version="1.0" encoding="utf-8"?>
<!-- Generator: Adobe Illustrator 22.1.0, SVG Export Plug-In . SVG Version: 6.00 Build 0)  -->
<svg version="1.1" id="_x39_" xmlns="http://www.w3.org/2000/svg" xmlns:xlink="http://www.w3.org/1999/xlink" x="0px" y="0px"
	 viewBox="0 0 720 568.125" style="enable-background:new 0 0 720 568.125;" xml:space="preserve">
<style type="text/css">
	.st0{fill:#717071;}
	.st1{fill:#FF6629;}
	.st2{fill:#C8C9CA;}
	.st3{fill:#FFFFFF;}
	.st4{fill:#C4F2E9;}
	.st5{fill:#FFF68A;}
	.st6{fill:#FF7033;}
	.st7{fill:#94C85C;}
</style>
<g>
	<path class="st0" d="M55.895,461.603c0,0,43.818-33.075,66.79-27.984c22.972,5.091,39.073,4.467,42.168,19.529
		c3.094,15.061,5.92,98.034-1.544,105.088s-54.94,6.858-76.344,1.568s-31.07-31.408-31.07-41.911S55.895,461.603,55.895,461.603z"/>
	<path class="st0" d="M555.05,450.676c0,0,43.818-33.075,66.79-27.984s35.979-10.594,39.073,4.467s3.619,93.303-12.557,118.088
		c-5.613,8.6-40.833,8.92-62.236,3.63s-31.07-31.408-31.07-41.911S555.05,450.676,555.05,450.676z"/>
	<path class="st1" d="M35.58,437.566c-18.96-23.825-30.047-50.129-31.525-96.741s33.645-88.427,51.84-95.238
		c18.195-6.811,52.899-30.066,53.231-31.445c0.332-1.379,14.002-21.958,7.682-42.728s18.071-122.968,74.983-147.545
		s89.677-15.91,100.642-16.918c10.965-1.007,147.033-5.911,163.271-4.724s88.755,7.29,119.004,43.939
		c30.249,36.649,26.519,70.054,23.597,84.403c-2.922,14.349,6.2,70.546,7.535,77.181c1.335,6.635,27.323,2.188,56.791,19.82
		s100.73,77.078,4.898,212.3C548.784,446.479,35.58,437.566,35.58,437.566z"/>
	<path class="st2" d="M687.95,423.728c4.912,20.005-6.357,36.38-23.295,39.296c-16.938,2.915-457.007,0-457.007,0
		s-154.462,8.12-166.69,1.296c-12.228-6.824-14.968-40.332-9.979-42.418s238.273-3.066,245.742-2.888
		c7.469,0.178,303.284,3.726,312.541,2.888C598.52,421.063,687.95,423.728,687.95,423.728z"/>
	<path class="st3" d="M460.688,464.207c-2.494,4.881-26.683,6.273-32.051,6.201s-162.639,3.624-168.861,3.347
		c-6.222-0.276-0.488-58.651-1.679-70.78c-1.191-12.129,14.867-18.594,31.082-19.276c16.215-0.682,120.743-13.813,153.922-1.946
		c20.082,3.135,19.094,21.204,19.138,28.634S460.688,464.207,460.688,464.207z"/>
	<path class="st4" d="M168.195,205.358c-17.995-3.198-14.119-37.477-11.71-58.689c2.41-21.212,20.307-89.443,76.821-97.901
		s168.967-5.244,201.096-6.851c32.129-1.607,94.781,0,110.042,28.114s26.865,106.589,25.481,116.753
		c-1.384,10.163-15.842,19.035-22.268,14.599c-6.426-4.436-238.974-1.196-238.974-1.196L168.195,205.358z"/>
	<path class="st5" d="M127.401,373.022c-23.73,2.925-63.981-2.722-59.237-40.526s32.518-68.662,73.085-51.245
		s32.077,53.985,23.603,65.91C156.378,359.085,145.31,370.815,127.401,373.022z"/>
	<path class="st5" d="M586.852,377.655c-18.666-4.393-36.185-25.583-27.441-52.683c8.744-27.1,35.898-44.009,68.427-33.17
		c32.53,10.84,29.35,33.894,22.99,52.973C644.47,363.855,628.602,387.48,586.852,377.655z"/>
	<path class="st6" d="M199.343,227.57c27.066-3.213,286.429-11.17,318.515-4.518s-42.195,75.299-41.151,111.168
		c1.044,35.869-241.781,34.832-250.05,6.605c-8.269-28.227-30.283-88.526-46.635-100.142S199.343,227.57,199.343,227.57z"/>
	<path class="st6" d="M26.811,303.315c10.796-27.053,37.941-64.188,75.236-68.33c37.296-4.142,7.879,0.33-15.083,20.248
		c-31.07,26.95-39.602,56.555-49.358,69.74C27.852,338.158,18.805,323.375,26.811,303.315z"/>
	<path class="st6" d="M148.747,82.72c17.637-27.936,46-61.311,84.353-65.281s172.16-8.762,179.724-6.872s9.611,6.79-11.17,6.872
		s-149.759,1.631-168.348,6.429S179.83,55.716,164.852,82.72C149.874,109.724,140.617,95.598,148.747,82.72z"/>
	<path class="st7" d="M207.648,199.414c0.821-1.722,9.058-50.793,8.643-54.497s-9.211-2.315-10.6-10.185
		s27.616-14.189,27.616-14.189s2.937-32.568,21.916-33.957c10.647,4.166,13.204,9.122,14.24,11.273
		c1.036,2.152,32.703,3.326,32.703,3.326s7.681-15.988,21.568-14.599c13.887,1.389,7.732,9.755,11.273,14.599
		c3.541,4.844,8.642,8.811,15.813,16.781c7.17,7.97,20.595,27.706,25.687,50.244c5.092,22.537,3.977,31.203,3.977,31.203H207.648z"
		/>
	<path class="st3" d="M243.187,144.454c9.258,3.704-9.881,54.96-9.881,54.96l110.84-0.871c0,0-20.875-39.738-15.783-54.089
		C300.329,142.958,243.187,144.454,243.187,144.454z"/>
	<path d="M282.043,1.573c-38.555,0.65-52.703,11.729,4.269,11.305c28.975-0.314,55.802-2.439,86.178-3.942
		c30.344-1.415,64.409-2.716,107.219,1.526c10.7,1.014,21.373,2.448,31.953,4.085l7.916,1.291l3.946,0.645
		c1.093,0.101,2.282,0.636,3.591,0.987c5.048,1.54,9.995,3.283,14.757,5.325c9.575,3.983,18.399,9.272,25.748,15.883
		c7.307,6.662,12.968,14.68,17.011,23.195c8.036,17.077,8.178,35.675,8.865,52.282c0.286,8.372,0.572,16.427,1.319,24.029
		c0.194,1.761,0.383,3.495,0.572,5.201c-0.014,1.517,0,3.61,0.055,5.307c0.138,3.495,0.272,6.856,0.401,10.078
		c0.738,12.374-0.189,20.212-1.443,24.956c-1.217,4.633-1.014,6.851,2.49,4.574c1.673-1.162,4.057-3.716,5.952-8.156
		c1.913-4.394,3.052-10.585,3.14-17.727c0.074-3.578-0.055-7.414-0.189-11.452c-0.051-1.987-0.101-4.057-0.152-6.21l-0.023-1.913
		l-0.254-2.204c-0.143-1.111-0.29-2.241-0.443-3.398c-1.134-9.272-1.807-20.189-3.144-32.904
		c-1.448-13.591-3.347-25.768-7.459-37.095c-4.214-11.323-10.364-21.494-19.483-30.784c-9.151-9.23-21.53-16.763-37.029-22.397
		c-1.936-0.733-3.937-1.355-5.966-2.056c-1.019-0.318-2.052-0.632-3.098-0.954l-1.572-0.479l-0.825-0.249l-1.226-0.272
		c-4.338-0.692-8.861-1.411-13.591-2.167c-9.479-1.369-19.805-2.757-31.183-3.73C407.61-2.651,332.114,0.766,282.043,1.573z"/>
	<path d="M109.452,172.323c0.129,1.259,0.3,2.467,0.503,3.605c0.277,1.139,0.673,2.204,1.037,3.195
		c0.784,1.982,1.484,3.688,2.6,4.933c2.047,2.554,3.937,3.651,5.288,3.329c1.355-0.318,2.217-2.029,2.314-4.924
		c0.023-0.724-0.005-1.521-0.092-2.397c0.018-0.913,0.023-1.923-0.041-3.011c-0.244-2.135-0.272-4.744-0.461-7.805
		c-0.309-12.503,1.166-24.781,4.297-38.718c3.135-13.937,8.418-29.373,16.869-48.146c8.229-18.589,21.654-34.749,36.374-45.454
		c14.748-10.788,30.114-16.464,41.579-19.318c5.624-1.388,9.608-3.001,11.779-4.661c2.158-1.692,2.462-3.453,0.498-4.633
		c-1.945-1.097-6.279-1.982-13.051-0.816c-6.726,1.111-16.136,3.946-26.725,10.913c-11.193,7.529-19.095,13.407-28.108,21.604
		c-4.472,4.117-9.096,8.953-13.909,15.283c-4.855,6.284-9.774,14.195-14.218,24.472c-6.795,15.966-14.259,32.121-19.552,47.962
		c-2.692,7.884-4.762,15.721-6.002,23.259c-0.738,3.739-0.945,7.478-1.277,11.019C109.171,165.615,108.968,169.036,109.452,172.323z
		"/>
	<path d="M420.606,40.457c-25.42-0.041-52.261-0.779-78.935-0.751c-13.333,0-26.628,0.24-39.657,0.779
		c-12.973,0.595-25.683,0.867-38.062,1.752c-12.346,0.89-24.342,2.467-35.411,5.597c-11.064,3.075-21.101,7.833-29.27,13.711
		c-8.197,5.86-14.545,12.559-19.626,18.764c-5.177,6.731-7.989,12.868-10.567,17.81c-9.797,19.834-18.418,46.205-20.156,68.137
		c-0.867,10.89,0.166,20.834,3.49,27.058c1.623,3.08,3.568,5.09,5.117,5.828c1.544,0.765,2.314,0.586,2.49-0.364
		c0.24-1.586-2.01-4.952-2.462-11.503c-0.609-6.441,0.032-15.505,1.826-25.343c3.439-19.732,10.815-42.365,15.997-56.279
		c1.319-3.449,3.495-9.184,7.187-15.906c3.582-6.367,9.949-14.062,18.173-20.885c4.149-3.462,9.004-6.538,14.305-9.378
		c5.435-2.568,11.249-5.076,17.606-6.713c12.604-3.656,26.721-5.039,41.155-6.017c58.001-4.514,121.294-1.941,156.986-2.042
		c17.823,0.032,36.453,0.29,54.949,2.586c9.239,1.102,18.445,2.757,27.251,5.385c8.755,2.628,17.297,6.183,24.028,11.706
		c1.614,1.438,3.384,2.729,4.564,4.5c1.328,1.674,2.738,3.209,3.513,5.09c1.775,3.836,3.116,8.05,4.366,12.167
		c2.462,8.28,4.393,16.524,6.085,24.463c3.361,15.897,5.634,30.696,6.92,43.508c1.277,12.817,2.19,24.016,1.927,32.264
		c-0.134,4.122-0.558,7.497-1.466,9.903c-0.807,2.54-2.702,3.513-3.43,4.163c-0.747,0.641-0.415,1.162,2.102,0.839
		c2.522-0.572,5.518-3.84,6.869-8.303c2.978-8.995,3.034-23.319,0.184-43.937c-2.992-20.59-6.814-37.87-11.023-53.799
		c-2.213-7.967-4.301-15.523-7.685-23.038c-4.103-7.722-10.603-13.126-17.703-17.054c-7.187-3.767-14.882-6.381-22.982-8.469
		c-8.137-1.89-16.675-3.315-25.785-4.325C465.27,40.392,444.736,40.291,420.606,40.457z"/>
	<path d="M294.818,198.653c-6.611-0.037-13.31-0.083-19.824-0.12c-4.583-0.065-11.29-0.152-18.916-0.254
		c-7.621-0.055-16.154-0.41-24.623-0.143c-16.767,0.756-31.985,2.024-36.563,1.485c-6.238-0.456-13.775-0.645-19.644-0.406
		c-5.841,0.267-10.322,1.097-10.396,4.481c-0.046,2.697,4.97,5.113,11.267,5.984c6.288,0.941,13.559,0.378,17.998-0.673
		c2.964-0.489,18.302-2.66,34.811-4.454c8.229-0.881,16.942-0.941,24.789-1.199c7.8-0.24,14.628-0.447,19.123-0.581
		c9.465-0.332,18.413-0.47,24.498-0.277c4.449,0,33.05,0.609,67.719-0.152c34.65-0.784,75.261-2.517,103.78-2.568
		c13.983,0.055,25.148-0.106,33.834-0.29c8.727-0.138,15.135,0.028,20.017,0.318c9.741,0.701,13.393,1.535,16.947,2.287
		c7.118,1.489,12.83,1.535,14.421-0.138c0.751-0.825,0.332-2.029-1.886-3.476c-2.199-1.443-6.288-2.946-12.526-3.615
		c-6.016-0.572-10.405-0.779-20.013-0.862c-4.799-0.018-10.894,0.092-19.086,0.392c-8.229,0.355-18.367,0.59-31.759,0.673
		c-28.468,0.304-68.876,2.171-103.683,3.089C330.325,199.04,301.005,198.51,294.818,198.653z"/>
	<path d="M56.965,253.692c-7.22,5.482-14.384,12.688-20.7,21.282c-6.279,8.621-11.701,18.594-15.882,29.258
		c-8.377,21.365-11.35,45.458-9.17,66.795c2.079,21.415,7.653,35.809,10.898,44.315c3.481,8.437,4.306,11.415,2.43,8.594
		c-1.816-2.831-5.611-6.399-10.281-13.684c-4.578-7.229-10.401-18.391-12.83-35.712c-1.217-8.621-1.609-16.906-1.36-24.661
		c0.18-7.755,0.89-14.998,1.978-21.595c2.093-13.218,5.32-23.914,8.072-31.683c2.798-7.773,4.232-9.751,7.722-15.196
		c1.853-2.665,4.158-6.247,8.132-11.434c3.992-5.141,9.423-12.121,18.542-20.442c9.142-8.313,17.814-13.296,24.734-16.358
		c1.756-0.715,3.379-1.374,4.882-1.987c1.54-0.507,2.974-0.913,4.274-1.282c2.582-0.775,4.744-1.134,6.44-1.282
		c6.745-0.673,6.012,1.365-0.055,4.048c-6.062,2.812-13.535,7.639-18.897,12.291C60.515,249.626,56.965,253.692,56.965,253.692z"/>
	<path d="M635.274,210.124c-11.894-1.895-19.856,1.936-20.193,4.537c-0.235,1.388,1.277,2.752,4.642,3.762
		c1.683,0.539,3.831,0.779,6.477,1.471c2.646,0.553,5.8,0.964,9.46,1.904c7.468,1.604,14.504,3.905,21.281,7.229
		c6.814,3.213,13.54,7.22,19.925,12.605c12.715,10.567,25.476,26.136,32.248,49.566c3.329,11.674,4.647,23.914,4.191,35.781
		c-0.433,11.876-2.568,23.366-5.495,33.965c-5.919,21.245-14.693,38.986-21.105,52.056c-2.443,4.97-4.015,9.11-4.596,12.194
		l5.62,3.158c0.968-2.609,0.415-3.73,0.221-4.624c-0.304-0.844-0.627-1.434-1.125-1.84c-0.479-0.396-1.346-0.35-2.296,0.42
		c-0.904,0.632-1.945,2.264-2.665,2.314l6.482,3.642c4.739-5.136,12.604-17.335,19.224-40.055
		c4.214-15.21,7.413-26.431,10.069-40.645c1.346-7.095,2.268-15.016,2.356-24.513c0.083-9.484-0.945-20.668-4.781-33.582
		c-6.168-20.581-17.473-39.944-32.105-54.204C668.661,220.751,650.469,212.507,635.274,210.124z"/>
	<path d="M89.688,414.918c25.766,0.973,62.164-0.005,92.471,1.014c30.307,1.024,42.404,3.914,37.859,3.864
		c-4.555-0.046-13.674,2.614-36.411,2.361c-22.742-0.249-40.929,0.24-51.551,0.811c-10.631,0.576-6.058-0.756-37.896-1.102
		c-31.829-0.35-37.854-3.868-28.749-4.454C74.507,416.817,89.688,414.918,89.688,414.918z"/>
	<path d="M38.128,448.384c-0.664-7.446-2.877-13.748-5.753-14.182c-1.383-0.272-2.808,0.779-3.946,3.504
		c-1,2.817-2.264,6.999-1.236,14.472c0.576,3.762,2.342,8.299,5.717,11.517c3.342,3.167,7.15,4.712,10.562,5.689
		c6.901,1.881,13.499,2.365,20.571,2.462c14.07,0.221,29.196-2.112,48.259-2.282c19.132,0.018,38.449,1.148,55.958,1.171
		c8.727,0.097,17.182-0.401,24.508-0.765c7.381-0.406,13.771-0.092,19.589,0.088c5.574,0.171,9.668-0.65,11.968-1.895l0.775-0.484
		l0.332-0.258l0.037-0.032l0.009-0.018v-0.005c0.484-1.259-1.07,2.812,1.18-2.826c-2.277-1.024-0.701-0.286-1.194-0.512
		l-0.083,0.065l-0.138,0.134l-0.682,1.111c-0.217,0.765,0.06,1.568,0.853,2.337l0.018,0.037c-0.018-1.793,0.046,4.016-0.226-4.025
		l0.235-0.018l0.018-0.009l-0.005-0.018l-0.074-0.074l-0.166-0.143l-0.373-0.281l-0.894-0.549c-0.668-0.36-1.471-0.696-2.411-1.014
		c-1.886-0.627-4.334-1.153-7.385-1.503c-3.098-0.341-6.597-0.544-11.101-0.438c-4.504,0.138-9.575,0.807-15.131,1.909
		c-23.512,4.716-35.097,1.194-75.616,1.678c-16.343,0.369-32.691,1.406-47.337-0.244c-7.21-0.811-14.361-2.222-19.69-4.477
		C39.834,456.13,38.82,453.322,38.128,448.384z"/>
	<path d="M261.182,400.828c-2.752,7.501-2.775,17.81-2.448,28.704c0.267,11.328-0.489,22.3-0.078,32.217
		c0.157,4.905,0.479,9,1.12,12.005c0.728,3.047,1.503,4.467,2.568,4.956c1.212,0.604,2.72,0.309,3.352,0.36
		c0.701,0.023,0.765,0.217,0.083,0.539c-0.668,0.323-1.415,0.913-2.655,1.328c-1.176,0.47-3.227,0.498-5.113-0.936
		c-3.757-2.877-5.883-8.824-6.588-16.662c-0.636-7.921-0.632-14.942-0.775-20.908c-0.046-6.007-0.424-10.581-0.881-14.278
		c-0.424-3.615-0.217-4.675,0.124-7.552c0.161-1.452,0.378-3.366,0.701-6.298c0.36-2.946,0.673-6.948,1.936-12.586
		c1.282-5.643,3.518-9.949,5.726-12.822c2.194-2.914,4.329-4.444,5.795-5.164c2.941-1.448,3.305-0.06,1.572,2.337
		c-1.72,2.48-3.246,6.164-3.817,9.258C261.205,398.426,261.182,400.828,261.182,400.828z"/>
	<path d="M294.91,379.874c3.559,0.092,15.167-0.489,30.911-1.512c15.748-0.987,35.632-2.448,55.797-3.278
		c20.169-0.761,40.606-1.042,57.401,1.392c8.312,1.134,16.283,4.14,20.575,9.507c4.103,5.371,4.813,10.373,5.362,12.974
		c1.42,8.216,1.203,16.123,1.484,23.435c0.184,7.363,0.29,14.32,0.046,20.558c-0.369,12.471-2.619,22.042-4.048,25.634
		c-2.808,7.234-5.509,9.922-7.69,8.492c-1.157-0.71-1.803-1.503-1.715-2.909c0.106-1.397,0.931-3.412,2.333-6.897
		c0.728-1.729,2.158-5.569,3.407-10.756c1.249-5.187,2.245-11.724,2.771-18.538c0.526-6.819,0.687-13.891,0.738-20.157
		c0.065-6.266-0.065-11.627-0.609-15.081c-0.659-4.467-1.687-9.032-4.14-12.628c-2.43-3.578-6.182-6.044-10.594-7.363
		c-8.815-2.683-18.796-2.868-28.403-3.213c-19.349-0.36-38.421,0.862-55.534,2.107c-34.231,2.674-60.79,5.191-66.944,5.781
		c-12.305,1.337-12.438-0.848-12.567-3.015C283.362,382.234,289.051,379.708,294.91,379.874z"/>
	<path d="M301.258,469.565c14.255,0.226,31.441-0.203,49.246-0.636c8.879-0.263,18.007-0.337,26.84-0.678
		c8.778-0.535,17.611-1.328,26.103-1.595c16.988-0.701,29.247,1.249,36.052,3.67c3.421,1.199,5.486,2.384,6.427,3.024
		c0.936,0.636,0.756,0.793-0.452,0.406c-5.002-1.609-15.149-1.305-39.943,0.134c-12.466,0.632-23.779,2.181-33.525,2.605
		c-9.654,0.429-17.629,0.941-23.507,1.425c-11.765,0.968-6.763-0.724-42.086-0.267c-35.342,0.456-42.04-3.532-31.967-4.477
		C284.514,472.229,301.258,469.565,301.258,469.565z"/>
	<path d="M515.534,418.113c35.623,0.687,85.911-0.692,127.808,0c41.897,0.687,58.66,3.449,52.376,3.449
		c-6.293,0-18.856,2.757-50.283,2.757c-31.432,0-56.562,0.692-71.227,1.379c-14.679,0.692-8.386-0.687-52.385-0.687
		c-43.995,0-52.376-3.449-39.8-4.14C494.581,420.178,515.534,418.113,515.534,418.113z"/>
	<path d="M487.366,459.067c-18.676,0.655-24.558,11.701,2.48,11.332c27.495-0.111,51.168-5.491,92.462-5.459
		c20.63,0,41.404,0.387,60.089,0.867c9.234,0.129,18.279,0.968,26.887-0.715c4.246-0.793,8.381-2.107,11.963-4.301
		c3.596-2.153,6.505-5.136,8.455-8.207c3.831-6.141,3.545-11.36,2.812-14.016c-0.871-2.757-2.471-3.366-4.223-1.927
		c-1.793,1.365-3.458,5.15-6.367,9.419c-1.489,2.116-3.25,4.205-6.081,6.146c-2.872,1.899-7.003,3.656-12.415,4.988
		c-5.749,1.443-11.364,1.521-16.896,1.72c-5.486,0.143-10.829,0.092-16.726-0.023c-11.788-0.226-25.78-0.687-47.499-0.295
		C547.621,459.113,511.533,458.241,487.366,459.067z"/>
	<path d="M59.704,346.301c-1.023-13.628,2.162-28.478,9.354-42.287c3.582-6.906,8.377-13.49,14.411-19.179
		c5.956-5.731,13.591-10.263,22.041-12.577c8.238-2.07,16.864-2.803,25.393-1.692c8.52,0.996,17.007,3.771,24.356,8.723
		c7.335,4.892,13.162,12.351,16.007,20.562c2.881,8.22,3.315,16.644,2.411,24.541c-0.913,7.916-3.098,14.988-5.887,21.152
		c-3.075,6.044-6.588,11.254-10.765,15.168c-2.005,1.996-4.315,3.536-6.371,5.012c-2.342,1.106-4.361,2.49-6.583,3.061
		c-2.222,0.521-4.186,1.415-6.178,1.425c-1.959,0.111-3.762,0.258-5.398,0.249c-3.241-0.604-5.952-0.701-7.883-1.6
		c-1.959-0.761-3.365-1.36-4.255-1.775c-1.77-0.834-1.498-0.968,0.664-0.355c2.19,0.535,4.905,1.489,8.584,1.24
		c0.904,0,1.853,0,2.863,0c1-0.134,2.042-0.406,3.13-0.613c1.079-0.281,2.259-0.341,3.393-0.821
		c1.125-0.475,2.305-0.977,3.545-1.508c4.762-2.425,9.843-6.51,14.103-12.951c4.251-6.399,7.791-15.002,9.386-25.574
		c1.65-10.549,0.092-21.023-4.223-29.027c-4.509-7.99-11.95-13.209-19.436-15.864c-15.172-5.385-29.57-2.96-38.112,0.42
		c-4.255,1.913-6.874,3.426-9.151,5.035c-2.333,1.512-4.38,3.061-7.206,5.592c-2.734,2.609-6.325,6.256-10.405,12.978
		c-3.9,6.676-8.796,16.703-9.792,31.54c-0.931,14.859,3.739,26.159,9.598,32.66c5.906,6.625,12.171,9.175,15.928,10.848
		c3.886,1.485,5.574,2.351,5.076,2.78c-0.456,0.295-3.195,0.526-7.625-0.71c-4.426-1.134-9.566-3.19-14.075-6.593
		c-4.55-3.319-8.363-7.875-10.912-12.434c-2.545-4.555-4.135-8.986-4.873-12.208c-0.461-1.604-0.715-2.914-0.857-3.817
		C59.796,346.799,59.704,346.301,59.704,346.301z"/>
	<path d="M552.881,334.849c1.365-12.771,7.049-26.643,18.095-37.137c5.555-5.136,12.351-9.198,19.755-11.803
		c7.418-2.623,15.421-3.628,23.364-3.426c7.897,0.355,16.08,1.637,23.692,5.422c7.538,3.702,14.292,10.189,17.528,18.151
		c3.379,7.879,4.029,16.372,3.098,24.232c-1.014,7.888-3.513,15.288-6.938,21.941c-6.924,13.273-16.781,22.457-26.619,26.796
		c-9.806,4.624-18.994,3.905-24.784,2.208c-1.508-0.341-2.808-0.853-3.946-1.411c-1.139-0.521-2.158-0.991-3.061-1.406
		c-1.669-1.07-2.858-1.886-3.605-2.439c-1.484-1.111-1.208-1.199,0.687-0.24c0.95,0.479,2.042,0.977,3.292,1.508
		c1.305,0.41,2.803,0.751,4.453,1.176c1.664,0.378,3.601,0.429,5.675,0.659c2.121-0.143,4.435-0.023,6.934-0.627
		c9.893-1.678,23.231-9.341,33.175-27.109c4.845-8.852,7.413-18.391,7.422-27.215c0.046-4.421-0.774-8.589-1.992-12.384
		c-1.337-3.767-3.365-7.008-5.717-9.733c-4.887-5.353-11.309-8.031-17.168-9.419c-1.494-0.286-2.946-0.562-4.352-0.83
		c-1.448-0.115-2.844-0.221-4.195-0.327c-2.683-0.29-5.219-0.124-7.496-0.032c-4.573,0.35-7.459,0.811-10.069,1.337
		c-1.323,0.207-2.563,0.466-3.896,0.825c-1.36,0.281-2.794,0.687-4.472,1.272c-3.315,1.176-7.814,2.854-13.448,7.363
		c-5.546,4.398-12.383,12.227-15.988,25.638c-3.08,13.458-1.429,25.136,1.669,32.729c3.107,7.796,8.091,11.346,11.392,13.075
		c3.384,1.669,5.094,2.314,4.615,2.812c-0.226,0.207-0.964,0.29-2.208,0.23c-0.618-0.041-1.378-0.06-2.231-0.226
		c-0.834-0.267-1.779-0.572-2.835-0.913c-4.149-1.614-8.469-4.984-11.516-9.405c-3.103-4.389-5.09-9.53-6.316-14.218
		c-1.291-4.703-1.604-9-1.886-12.088C552.895,336.744,552.881,334.849,552.881,334.849z"/>
	<path d="M60.349,497.439c-0.424,9.036-0.203,19.986,1.978,30.576c2.342,10.512,7.284,20.152,15.43,24.818
		c1.005,0.586,1.881,1.323,2.877,1.784c1.023,0.438,2.01,0.862,2.951,1.268c0.95,0.401,1.83,0.885,2.734,1.208
		c0.936,0.272,1.826,0.53,2.669,0.775c1.706,0.489,3.227,1.07,4.619,1.448c1.42,0.286,2.66,0.572,3.725,0.844
		c4.269,1.088,5.68,1.959,4.066,1.895c-1.609-0.065-4.002,0.659-8.183,1.305c-2.075,0.157-4.596,0.051-7.676-0.171
		c-1.549-0.032-3.144-0.696-4.924-1.153c-1.775-0.516-3.702-1.07-5.555-2.291c-7.74-4.103-13.088-10.595-16.057-16.519
		c-2.992-5.947-4.61-11.176-5.717-14.998c-0.982-3.836-1.079-5.016-0.996-8.087c-0.018-3.029-0.046-7.967-0.111-19.497
		c0.235-22.674,4.324-26.842,5.09-20.424C58.049,486.706,60.349,497.439,60.349,497.439z"/>
	<path d="M170.892,498.877c-0.295,9.244,0.065,20.475-0.904,32.291c-0.59,5.98-1.143,11.674-2.72,17.93
		c-0.811,3.08-2.052,6.252-3.96,9.138c-1.89,2.895-4.532,5.413-7.464,7.054c-1.434,0.775-2.937,1.485-4.541,1.913
		c-1.498,0.396-2.868,0.622-4.149,0.742c-2.572,0.249-4.845,0.217-6.901,0.037c-4.103-0.378-7.312-1.291-9.608-2.402
		c-2.305-1.093-3.656-2.591-3.919-3.541c-0.3-0.867-0.032-0.848,0.539-0.171c1.295,1.392,4.043,1.503,7.957,1.153
		c1.987-0.184,4.338-0.493,7.104-0.977c2.711-0.535,6.085-1.023,8.893-2.582c6.27-3.246,8.22-10.124,9.054-15.878
		c0.798-5.947,1.005-11.111,0.931-14.753c-0.088-3.707,0.166-4.74,0.618-7.635c0.438-2.9,1.074-7.662,0.959-18.967
		c-0.401-22.711,3.785-27.137,4.596-20.613C168.232,488.08,170.892,498.877,170.892,498.877z"/>
	<path d="M93.768,487.776c-0.917,9.359-0.516,22.42,0.576,32.854c0.572,5.205,0.973,8.898,1.217,11.171
		c0.217,2.264-0.037,3.158-0.341,2.393c-0.507-1.475-4.287-3.753-5.79-12.222c-1.305-8.359-1.78-15.053-2.337-18.963
		c-0.484-3.896,0.526-2.264,0.973-13.799c0.429-11.443,3.089-13.619,3.67-10.327C92.298,482.197,93.768,487.776,93.768,487.776z"/>
	<path d="M123.582,511.404c-0.12,6.925,2.72,16.427,3.601,24.735c0.853,8.349-1.056,11.982-1.199,10.728
		c-0.18-1.245-2.706-3.375-3.739-9.47c-1.056-6.109-2.48-10.936-3.467-13.762c-0.931-2.849,0.166-1.715-0.724-10.539
		c-0.641-8.94,2.457-10.572,2.974-8.096C121.591,507.48,123.582,511.404,123.582,511.404z"/>
	<path d="M562.494,493.35c-0.032,7.865,0.913,17.381,3.172,26.699c2.208,9.17,6.053,18.709,11.848,22.619
		c2.835,1.895,5.901,2.467,8.759,2.411c2.854,0.009,5.302-0.503,7.178-0.77c3.697-0.816,5.209-0.678,3.942-0.037
		c-1.263,0.632-2.679,2.384-5.869,4.398c-1.637,0.913-3.72,1.913-6.551,2.471c-2.817,0.401-6.537,0.309-10.258-1.655
		c-3.702-1.946-6.38-4.809-8.423-7.589c-2.079-2.803-3.476-5.638-4.721-8.243c-2.388-5.247-3.817-9.709-4.947-12.987
		c-1.079-3.292-1.019-4.306-1.143-6.994c-0.042-2.692-0.383-7.049-0.987-17.082c-0.834-20.097,3.743-23.734,4.417-18.114
		C559.686,484.152,562.494,493.35,562.494,493.35z"/>
	<path d="M664.655,488.481c-0.825,9.507-1.12,21.12-3.886,33.296c-1.503,6.04-3.559,12.342-7.51,17.898
		c-3.743,5.625-9.806,10.023-16.025,11.761c-6.256,1.734-11.576,1.277-15.693,0.609c-4.117-0.825-7.164-1.969-9.363-2.909
		c-4.324-2.112-5.389-3.241-3.78-2.808c1.618,0.41,4.26,0.401,8.432,0.313c4.126-0.254,9.921,0.032,17.173-1.913
		c7.312-1.992,12.028-7.372,14.499-12.623c2.563-5.274,3.425-10.3,3.905-13.937c0.42-3.684,0.779-4.689,1.531-7.547
		c0.719-2.868,1.881-7.621,2.434-19.147c0.77-23.176,4.938-27.625,5.551-20.89c0.3,3.338,1.01,7.792,1.623,11.429
		C664.171,485.664,664.655,488.481,664.655,488.481z"/>
	<path d="M595.627,486.904c-0.562,6.081,0.562,14.67,0,21.826s-2.821,10.018-2.821,8.944s-2.259-3.218-2.259-8.589
		c0-5.366-0.562-9.659-1.125-12.162c-0.567-2.508,0.562-1.434,0.562-8.949c0-7.51,2.821-8.944,3.384-6.796
		C593.935,483.322,595.627,486.904,595.627,486.904z"/>
	<path d="M627.677,498.458c-0.567,5.187,0.562,12.499,0,18.598c-0.567,6.095-2.821,8.534-2.821,7.616
		c0-0.913-2.259-2.743-2.259-7.312c0-4.574-0.562-8.23-1.13-10.364c-0.567-2.135,0.567-1.222,0.567-7.621
		c0-6.399,2.821-7.621,3.384-5.791C625.98,495.41,627.677,498.458,627.677,498.458z"/>
	<path d="M233.346,100.687c2.36-4.952,5.823-10.489,11.77-14.477c3.006-1.752,6.141-3.462,10.373-3.49
		c2.065-0.014,4.264,0.636,5.989,1.752c1.72,1.116,3.006,2.531,3.942,3.919c3.531,5.666,3.946,9.562,4.684,11.83
		c0.59,2.259,0.613,3.181,0.12,2.471c-0.47-0.696-1.66-1.489-3.149-3.204c-1.544-1.646-3.186-4.366-5.398-7.612
		c-4.592-7.174-11.576-1.982-13.863-0.046c-1.231,1.249-1.678,1.457-2.844,2.273c-1.083,0.839-3.227,2.282-5.758,7.229
		c-2.374,5.002-2.683,8.031-3.121,9.645c-0.369,1.632-1.18,1.863-1.955,0.046c-0.65-1.775-1.06-4.375-1.033-6.524
		C233.088,102.351,233.346,100.687,233.346,100.687z"/>
	<path d="M276.704,97.861c5.071,0.701,12.208,0.023,17.998,0.705c5.772,0.669,8.192,2.729,7.321,2.785
		c-0.871,0.018-2.619,2.37-7.127,2.291c-4.481-0.092-8.059,0.281-10.152,0.751c-2.093,0.479-1.171-0.636-7.33-0.871
		c-6.118-0.175-7.307-2.918-5.532-3.495C273.662,99.46,276.704,97.861,276.704,97.861z"/>
	<path d="M303.891,92.213c2.153-1.798,4.587-3.545,7.362-5.094c2.785-1.48,5.892-3.084,9.737-3.467
		c3.421-0.475,7.574-0.29,11.207,1.895c3.647,2.222,5.643,6.017,6.454,9.244c1.503,6.611,0.383,10.834-0.12,13.301
		c-0.622,2.457-1.194,3.195-1.194,2.305c-0.005-0.885-0.549-2.231-1.162-4.426c-0.641-2.176-1.222-5.233-2.204-9.184
		c-0.553-1.95-1.411-3.605-2.462-4.841c-1.051-1.24-2.393-1.89-3.66-2.324c-2.623-0.793-5.237-0.129-6.952,0.249
		c-1.503,0.553-2.038,0.609-3.444,0.908c-1.342,0.392-3.951,0.904-8.492,4.486c-4.44,3.711-6.012,6.183-6.722,7.524
		c-0.641,1.411-1.535,1.715-1.886-0.433c-0.184-2.075,0.655-4.763,1.618-6.745C302.936,93.633,303.891,92.213,303.891,92.213z"/>
	<path d="M224.812,126.417c7.229-1.849,11.558-3.532,12.328-5.293c1.047-1.784-4.352-4.896-15.974-1.927
		c-5.915,1.627-11.304,3.375-16.882,7.386c-0.682,0.493-1.443,1.194-2.181,2.033c-0.659,0.807-1.125,1.664-1.655,2.513
		c-0.433,0.982-0.862,2.065-1.037,3.241c-0.115,1.263-0.124,2.522,0.313,3.725c0.728,2.434,2.324,4.08,3.822,5.191
		c1.531,1.203,3.126,1.923,4.735,2.577c3.227,1.245,6.551,1.941,10.087,2.176c1.766,0.115,3.587,0.115,5.523-0.148
		c1.678-0.254,3.388-0.516,5.14-0.784c6.989-0.996,14.665-1.701,23.272-1.932c17.214-0.447,34.609,0.604,50.246,1.24
		c15.486,0.719,28.901,3.827,38.541,6.814c9.372,2.955,14.564,2.411,12.595-0.604c-1.014-1.471-3.873-3.541-9.133-5.588
		c-5.246-2.019-12.959-4.062-23.337-4.652c-11.06-0.636-19.284-0.609-29.086-1.01c-9.866-0.341-21.599-1.249-39.943-0.586
		c-7.321,0.295-14.706,0.738-21.972,1.369c-1.812,0.166-3.624,0.337-5.422,0.503c-0.95,0.106-1.766,0.157-2.453,0.18
		c-0.756,0.005-1.54-0.018-2.328-0.106c-3.149-0.341-6.376-1.139-9.068-2.439c-1.351-0.632-2.545-1.406-3.439-2.218
		c-0.834-0.834-1.194-1.604-1.222-2.107c0.032-0.507,0.346-1.305,1.056-2.176c0.567-0.696,1.429-1.332,2.674-2.006
		C214.79,129.211,220.211,127.57,224.812,126.417z"/>
	<path d="M257.452,171.47c-2.499,0.586-5.02,1.351-7.478,2.093c-3.476,0.964-10.078,3.559-15.841,7.155
		c-5.827,3.504-10.474,7.999-12.466,8.912c-2.623,1.268-5.076,3.854-5.339,6.708c-0.318,2.858,1.259,5.675,5.924,7.833
		c3.808,1.766,6.533,1.355,8.142,0.106c1.646-1.226,2.434-3.264,2.287-5.214c-0.046-1.189,2.291-5.828,6.399-9.899
		c3.96-4.195,9.575-7.621,12.438-9.129c2.969-1.71,6.081-2.766,8.294-2.992c1.572-0.24,11.802-2.31,24.466-2.291
		c12.498-0.106,27.26,2.831,36.337,7.248c9.004,4.251,12.609,8.529,14.504,11.07c1.899,2.623,2.028,3.919,2.48,4.993
		c0.595,2.162,4.315,2.789,7.588,2.278c1.59-0.295,2.969-1.019,3.527-2.356c0.479-1.272,0.461-3.412-1.526-5.482
		c-0.908-0.982-1.701-1.83-2.628-2.826c-1-0.894-2.098-1.936-3.518-3.398c-3.08-2.573-7.75-6.874-17.496-10.996
		c-10.364-4.523-25.822-7.326-39.316-7.054C270.937,168.39,259.771,170.756,257.452,171.47z"/>
	<path d="M219.34,162.134c-1.148,7.174-0.964,17.644-3.928,25.837c-2.978,8.165-7.399,10.143-6.924,8.976
		c0.383-1.213-1.826-4.541-0.29-10.383c1.508-5.911,1.489-10.876,1.079-13.757c-0.489-2.905,1.18-1.457,1.853-9.922
		c0.447-8.405,4.315-10.143,5.168-7.63C217.132,157.75,219.34,162.134,219.34,162.134z"/>
	<path d="M359.01,120.848c2.628,3.089,5.786,6.455,8.782,10.613c1.466,2.102,2.955,4.352,4.103,6.948
		c1.088,2.425,2.028,4.716,2.978,7.169c3.771,9.682,6.463,20.221,7.561,29.848c1.982,19.253-1.047,27.012-1.18,24.205
		c-0.341-2.822-3.891-8.239-5.915-22.121c-2.107-13.914-6.284-24.352-9.331-30.06c-1.508-2.794-1.706-3.933-2.356-6.077
		c-0.71-2.121-1.945-5.754-8.639-12.872c-6.809-7.045-10.267-12.692-10.742-15.731c-0.558-3.011,0.825-3.084,2.619-1.019
		c1.867,2.075,4.882,4.338,7.45,6.067C356.977,119.525,359.01,120.848,359.01,120.848z"/>
	<path d="M311.456,420.1c-0.599-0.429-3.135-1.083-6.233,0.337c-3.121,1.282-6.261,5.058-7.261,9.493
		c-0.516,2.199-0.549,4.518-0.078,6.621c0.401,1.789,1.637,3.306,3.061,4.384c2.9,2.208,5.933,2.669,6.984,2.817
		c1.65,0.212,3.435-0.157,4.495-0.839c1.07-0.696,1.411-1.646,1.697-2.72c0.475-2.204,0.581-4.896,1.023-5.814
		c0.798-1.909,1.863-2.623,4.2-1.282c2.393,1.332,3.167,2.056,2.439,3.711c-0.498,0.775-1.328,3.873-3.873,7.248
		c-1.323,1.655-3.43,2.822-5.228,3.158c-1.803,0.415-3.296,0.364-4.334,0.396c-2.646,0.005-5.329-0.613-7.856-1.826
		c-2.499-1.213-4.984-3.075-6.514-5.998c-2.577-5.897-1.614-11.715,0.562-16.533c2.296-4.767,6.302-8.151,10.078-9.534
		c3.776-1.434,6.782-1.189,7.814-1.162c4.361,0.346,3.467,2.665,2.692,4.597C314.227,419.191,312.41,420.763,311.456,420.1z"/>
	<path d="M309.202,429.883c0.539,0.586,3.121,0.719,5.509,1.019c2.42,0.29,4.642,0.258,5.177,0.226
		c1.835,0.009,2.54-2.974,2.66-3.034c0.24-0.069,0.521,0.429,1.383,3.001c0.857,2.577,1.116,3.633,0.59,3.785
		c-0.567,0.258-3.578-0.18-4.435,0.051c-2.407,0.844-5.163,1.074-7.077,1.438c-1.945,0.341-3.08,0.807-3.315,1.102
		c-0.447,0.576-0.673-1.591-0.904-3.753C308.542,431.561,308.741,429.371,309.202,429.883z"/>
	<path d="M344.806,414.461c-1.314,1.812-0.544,20.12-0.544,22.789c0,4.057,2.72,7.824,2.72,8.737c0,0.913-0.553,1.323-3.264,1.282
		c-2.715-0.042-3.803-0.226-3.803-1.217s0.853-6.607,0.544-8.432c-1.632-9.53-2.715-21.512-3.259-23.084
		c-0.544-1.568,1.632-1.568,3.808-1.568C343.179,412.967,345.35,413.714,344.806,414.461z"/>
	<path d="M378.857,418.302c-0.489-0.516-2.748-1.687-5.781-1.185c-3.043,0.346-6.325,3.264-6.994,7.395
		c-0.429,2.038-0.161,4.145,0.235,6.261c0.438,2.13,1.047,4.062,1.909,5.214c1.595,2.268,4.509,2.199,5.569,2.319
		c1.733,0.101,3.342-0.212,4.44-0.862c1.129-0.636,1.526-1.508,1.609-2.273c0.175-1.549-0.535-3.158-0.503-3.744
		c0.009-1.226,0.433-1.95,3.153-2.231c2.679-0.281,3.863-0.092,3.909,1.973c-0.078,0.904,0.065,4.79-2.918,7.967
		c-3.126,3.117-7.404,2.831-9.073,2.992c-2.305,0.12-5.094,0.12-7.75-1.618c-2.66-1.798-3.826-4.689-4.615-7.04
		c-0.728-2.337-1.342-4.905-1.351-7.612c0.028-2.674,0.641-5.403,1.927-7.773c2.517-4.929,7.759-7.312,11.47-7.603
		c3.817-0.373,6.334,0.461,7.261,0.632c3.799,1.005,2.586,3.061,1.512,4.878C381.683,417.859,379.65,419.154,378.857,418.302z"/>
	<path d="M376.372,426.563c-0.134,0.701,1.448,1.088,3.356,0.738c1.858-0.286,3.776-1.01,4.264-1.139
		c1.521-0.41,2.153-3.444,2.526-3.55c0.369-0.106,0.687,0.373,1.429,2.983c0.742,2.614,0.977,3.679,0.609,3.785
		c-0.364,0.106-2.78-0.069-3.421,0.415c-1.66,1.291-3.716,2.467-5.749,3.204c-1.959,0.798-4.315,0.858-5.016,0.908
		c-1.494,0.083-0.613-1.955,0.272-3.928C375.583,428.02,376.496,426.019,376.372,426.563z"/>
	<path d="M401.806,436.522c0.678-1.71,2.702-11.277,7.524-19.709l0.871-1.586l1.212-2.07c0.867-1.383,1.72-2.633,2.886-3.356
		c1.208-0.728,2.794-0.816,4.048-0.304c1.328,0.443,1.969,1.595,2.711,2.605c0.655,1.13,1.236,2.324,1.701,3.435
		c0.424,1,0.664,1.623,0.927,2.342c0.507,1.355,0.83,2.397,1.019,2.997c2.236,7.224,5.763,13.9,5.8,16.072
		c0.088,2.001-0.655,3.269-3.319,2.84c-2.725-0.401-3.693-0.655-3.73-2.264c-0.014-0.816-0.014-3.725-0.447-6.869
		c-0.392-3.14-1.111-6.441-1.733-7.962c-0.415-0.982-0.839-1.982-1.268-2.997l-0.687-1.485l-0.369-0.728l-0.249-0.429
		c-0.668-0.968-1.176-2.231-2.397-1.821c-1.102,0.447-1.166,1.78-1.521,2.448c-0.917,1.909-1.729,3.781-2.402,5.565
		c-2.794,7.165-3.135,12.808-3.006,14.071c0.263,2.545-1.853,2.425-4.038,2.324C403.18,439.565,401.064,437.942,401.806,436.522z"/>
	<path d="M398.39,425.932c1.669,1.346,18.547,0.899,21.009,0.945c3.739,0.074,7.275-2.577,8.123-2.563
		c0.844,0.018,1.203,0.576,1.097,3.283c-0.101,2.716-0.295,3.799-1.208,3.781c-0.913-0.014-6.053-0.968-7.736-0.687
		c-8.796,1.462-19.782,2.333-21.221,2.854c-1.438,0.512-1.438-1.664-1.443-3.836C397.012,427.532,397.703,425.374,398.39,425.932z"
		/>
</g>
</svg>
